<?xml version="1.0" encoding="UTF-8" standalone="no"?>
<svg
   version="1.0"
   width="17"
   height="17"
   viewBox="0 0 12.749999 12.750001"
   preserveAspectRatio="xMidYMid meet"
   id="svg16"
   sodipodi:docname="Area_Mineracao.svg"
   inkscape:version="1.2.2 (732a01da63, 2022-12-09)"
   xmlns:inkscape="http://www.inkscape.org/namespaces/inkscape"
   xmlns:sodipodi="http://sodipodi.sourceforge.net/DTD/sodipodi-0.dtd"
   xmlns="http://www.w3.org/2000/svg"
   xmlns:svg="http://www.w3.org/2000/svg"
   xmlns:rdf="http://www.w3.org/1999/02/22-rdf-syntax-ns#"
   xmlns:cc="http://creativecommons.org/ns#"
   xmlns:dc="http://purl.org/dc/elements/1.1/">
  <defs
     id="defs20" />
  <sodipodi:namedview
     pagecolor="#ffffff"
     bordercolor="#666666"
     borderopacity="1"
     objecttolerance="10"
     gridtolerance="10"
     guidetolerance="10"
     inkscape:pageopacity="0"
     inkscape:pageshadow="2"
     inkscape:window-width="1920"
     inkscape:window-height="991"
     id="namedview18"
     showgrid="false"
     units="px"
     inkscape:zoom="64"
     inkscape:cx="6.6171875"
     inkscape:cy="10"
     inkscape:window-x="-9"
     inkscape:window-y="-9"
     inkscape:window-maximized="1"
     inkscape:current-layer="svg16"
     inkscape:pagecheckerboard="true"
     inkscape:showpageshadow="2"
     inkscape:deskcolor="#d1d1d1" />
  <metadata
     id="metadata2">
Created by potrace 1.15, written by Peter Selinger 2001-2017
<rdf:RDF>
  <cc:Work
     rdf:about="">
    <dc:format>image/svg+xml</dc:format>
    <dc:type
       rdf:resource="http://purl.org/dc/dcmitype/StillImage" />
  </cc:Work>
</rdf:RDF>
</metadata>
  <g
     id="g396">
    <g
       id="g374">
      <g
         style="fill:#ffffff;stroke:#ffffff;stroke-width:91.559;stroke-miterlimit:4;stroke-dasharray:none;stroke-opacity:1"
         id="g839"
         transform="matrix(3.9357192e-5,0,0,-5.2766309e-5,0.85939886,0.74505929)">
        <path
           inkscape:connector-curvature="0"
           id="path829"
           d="m 2927.461,4735.8897 c -349.3358,-38.0625 -597.2515,-341.2033 -511.9299,-623.9533 106.2496,-356.1564 623.009,-511.1253 973.9548,-293.6251 201.2302,125.0625 288.1617,356.1564 212.4991,560.0627 -91.761,250.1252 -360.6047,392.8595 -674.524,357.5157 z"
           style="fill:#ffffff;stroke:#ffffff;stroke-width:91.559;stroke-miterlimit:4;stroke-dasharray:none;stroke-opacity:1" />
        <path
           inkscape:connector-curvature="0"
           id="path833"
           d="m 938.68279,2405.1433 c -208,-205 -385,-386 -394,-403 -26,-50 -21,-143 11,-199 50,-85 327.64651,-275.1713 412.64651,-223.1713 40,24 873.7835,840.4228 873.7835,855.4228 0,5 -141.2057,117.704 -214.2057,190.704 l -349.3623,125.8707 z"
           sodipodi:nodetypes="ccccsscc"
           style="fill:#ffffff;stroke:#ffffff;stroke-width:91.559;stroke-miterlimit:4;stroke-dasharray:none;stroke-opacity:1" />
        <path
           inkscape:connector-curvature="0"
           id="path835"
           d="M 865.34744,1533.8391 C 256.34744,928.83914 3.3474449,670.83914 -7.6525551,644.83914 c -31.9999999,-79 -11.2931619,-179.46325 47.0000001,-235 C 105.49328,346.82103 459.11986,319.93 459.11986,319.93 c 19,8 289.12354,234.83 792.12354,737.83 l 920.9071,920.0988 -129.182,251.0448 c -45.9688,89.3331 -178.6841,250.8861 -247.6526,197.6014 -5,0 -458.9685,-423.6659 -929.96846,-892.6659 z"
           sodipodi:nodetypes="ccscccscc"
           style="fill:#ffffff;stroke:#ffffff;stroke-width:91.559;stroke-miterlimit:4;stroke-dasharray:none;stroke-opacity:1" />
        <path
           inkscape:connector-curvature="0"
           id="path837"
           d="m 1778.0426,1399.8482 c -29.7223,-6.9614 -75.0879,-16.7071 -100.1173,-22.276 -123.5824,-26.4528 -345.7177,-211.6223 -373.8756,-311.8644 -57.8803,-203.26874 -61.009,-229.72151 -43.8013,-329.9636 23.465,-143.40189 75.0879,-233.89823 186.1556,-331.35583 118.8893,-105.8111 212.7493,-148.97089 370.7469,-174.03141 136.097,-20.88378 344.1533,15.31476 458.3497,79.35832 70.3949,40.3753 167.3836,132.26388 222.1352,210.22995 157.9977,229.72148 111.0677,531.84007 -112.632,721.18627 -96.9885,82.1428 -142.3543,108.5956 -234.6499,137.8328 -81.3453,26.4528 -297.2233,37.5908 -372.3113,20.8839 z"
           style="fill:#ffffff;stroke:#ffffff;stroke-width:91.559;stroke-miterlimit:4;stroke-dasharray:none;stroke-opacity:1" />
        <path
           inkscape:connector-curvature="0"
           id="path831"
           d="m 2656.2525,3921.0737 c -84.7651,-3.1629 -660.1487,17.4311 -1396.5454,17.4311 C -50.973009,3936.3962 38.795549,3855.7598 -0.40829798,3835.7282 -48.088668,3809.3707 -87.123279,3746.7277 -103.01674,3685.5784 c -24.36996,-90.6697 -36.43547,-199.0784 51.508314,-249.6847 0,0 95.092367,-99.0458 197.142256,-124.0476 117.06469,-28.6803 1011.52087,-37.2167 1011.52087,-37.2167 606.0127,83.2674 385.2684,-150.9976 427.4008,-185.1074 l -430.6602,-461.6084 490.4196,-343.3241 410.5184,-424.5839 621.3412,670.5004 c 0,0 359.6037,340.5934 370.1993,357.4622 0,0 115.4371,-6.0788 124.7747,-12.2649 v 0 c 56.1568,-53.7693 76.4709,-95.614 49.5484,-146.6415 v 0 l -107.9794,-105.8011 c -191.7234,-129.4102 -326.8857,-269.2188 -426.3474,-433.5014 -20.1317,-61.1493 -9.1332,-70.4535 12.0581,-127.3856 39.2038,-104.3756 290.3782,-288.8983 396.3346,-259.3779 42.3826,11.5973 152.5569,-22.4654 588.7586,412.0991 92.9842,83.3247 403.4805,383.2552 420.4335,407.5041 40.2634,57.9864 63.4045,214.5324 35.8559,274.6274 -13.7744,30.5747 -53.1033,131.594 -397.4615,465.8068 -454.5528,441.7513 -484.2205,469.1631 -548.8539,494.4663 -78.4077,31.6289 -265.9946,75.1715 -537.2429,63.5742 z"
           sodipodi:nodetypes="cccccsccccccccccccccccccccc"
           style="fill:#ffffff;stroke:#ffffff;stroke-width:91.559;stroke-miterlimit:4;stroke-dasharray:none;stroke-opacity:1" />
        <g
           id="g386"
           style="clip-rule:evenodd;fill-rule:evenodd;image-rendering:optimizeQuality;shape-rendering:geometricPrecision;text-rendering:geometricPrecision"
           transform="matrix(12.54135,0,0,-10.60938,-40445.777,7010.0267)">
          <path
             style="clip-rule:evenodd;display:inline;fill:#ffffff;fill-rule:evenodd;stroke:#000000;stroke-width:0;image-rendering:optimizeQuality;shape-rendering:geometricPrecision;text-rendering:geometricPrecision"
             d="M 411.8607,27.812922 C 399.24811,31.405198 392.03302,43.444468 382.37306,51.448623 305.47677,126.66686 228.81368,202.17458 152.4365,277.8889 c -7.70543,9.47314 -7.65185,22.51985 -10.2445,33.99374 -7.09112,46.23385 -1.29166,96.70281 26.17982,135.70585 7.67806,11.68906 25.76568,13.20466 35.20021,2.83719 45.77619,-44.75087 91.10577,-89.95633 136.62869,-134.96447 50.81168,50.43811 101.58694,100.91289 152.35698,151.39291 -82.22798,81.56303 -164.96335,162.66452 -246.99945,244.38949 -9.06881,9.41147 -6.77285,25.39159 3.29492,33.17895 8.94894,8.4331 17.65651,21.45804 31.70483,19.02869 12.82275,-2.18714 19.76593,-14.81217 29.15868,-22.60742 76.70334,-75.72111 153.13985,-151.71416 230.22806,-227.04419 84.00851,82.32035 167.0961,165.62205 250.91553,248.10278 9.73709,9.22952 25.88634,6.28545 33.6701,-4.02731 8.16968,-8.42141 20.15637,-17.16858 17.8672,-30.48173 -1.47459,-12.98209 -14.24314,-19.90014 -22.02898,-29.12941 C 742.83461,620.84368 664.65087,544.07555 587.31637,466.455 c 63.6712,-63.35746 127.65505,-126.55105 191.73274,-189.36888 59.01564,62.07038 110.38772,130.42942 156.93815,202.35853 6.19238,11.33288 21.54541,17.68931 33.01287,10.284 13.26992,-7.34847 12.31732,-24.36665 13.27925,-37.44698 1.31347,-36.17011 0.80208,-72.81445 -8.11948,-108.10905 C 954.93813,258.75399 901.02273,183.28059 830.91322,131.79758 752.19632,74.158138 655.45819,43.100346 558.28064,39.270499 c -10.34643,-0.761807 -22.63012,-2.123235 -30.03731,6.908109 -9.98669,10.13852 -6.18224,28.295893 5.94988,35.083328 33.35066,20.721894 66.80591,41.535664 98.23797,65.220364 34.76279,25.73691 67.91076,53.64107 99.3485,83.34402 C 668.0479,293.37894 603.77074,356.67903 539.70373,420.05128 488.87254,369.62287 438.04125,319.19456 387.20987,268.76635 429.87093,226.19609 472.86122,183.90629 515.315,141.15917 c 9.24431,-9.61217 6.58973,-25.93096 -3.90609,-33.53992 -27.32009,-25.303768 -53.90454,-51.444864 -81.96197,-75.928908 -5.09921,-3.612243 -11.47592,-4.691456 -17.58624,-3.87742 z"
             id="path312"
             transform="scale(26.458333)" />
          <path
             class="fil0"
             d="M 4450.5,7729.07 11014.09,1258.9 13233.33,3347.65 9439.93,7111.17 14282.19,11909.11 20177.6,6077.3 C 18370.51,4306.93 16409.02,2814.5 14292.28,1601.48 c 6167.42,-1.9 11958.74,4394.63 11066.54,10969.18 -1435.91,-2277.47 -3015.96,-4295.4 -4740.63,-6053.05 l -5893.54,5829.94 7029.66,6965.35 -438.41,442.46 L 14281.81,12785.62 7334.5,19658 6896.09,19215.55 13839.32,12347.18 8997.76,7549.9 4943.75,11571.98 C 4315.77,10683.11 4023.3,9305 4450.5,7729.07 Z"
             id="path7"
             style="display:inline;fill:#000000" />
        </g>
      </g>
      <g
         id="g360">
        <path
           style="fill:#1a1a1a;stroke:#000000;stroke-width:0"
           d="m 3.5273438,4.59375 6.1757812,6.902344 0.375,-0.421875 -6.1757812,-6.9375003 z"
           id="path354" />
        <path
           style="fill:#1a1a1a;stroke:#000000;stroke-width:0"
           d="M 9.609375,3.9960938 2.9648438,11.4375 2.6132813,10.992188 9.28125,3.609375 Z"
           id="path356" />
      </g>
    </g>
    <g
       id="g379">
      <path
         style="fill:#1a1a1a;stroke:#000000;stroke-width:0"
         d="M 3.2226563,11.121094 2.953125,11.4375 2.5898438,11.027344 2.8476563,10.734375 Z"
         id="path376" />
    </g>
  </g>
</svg>
