<?xml version="1.0" encoding="UTF-8" standalone="no"?>
<!-- Creator: CorelDRAW -->

<svg
   xml:space="preserve"
   width="17mm"
   height="17mm"
   version="1.1"
   style="clip-rule:evenodd;fill-rule:evenodd;image-rendering:optimizeQuality;shape-rendering:geometricPrecision;text-rendering:geometricPrecision"
   viewBox="0 0 1700 1700.0001"
   id="svg10"
   sodipodi:docname="desenho.svg"
   inkscape:version="1.2.2 (732a01da63, 2022-12-09)"
   xmlns:inkscape="http://www.inkscape.org/namespaces/inkscape"
   xmlns:sodipodi="http://sodipodi.sourceforge.net/DTD/sodipodi-0.dtd"
   xmlns="http://www.w3.org/2000/svg"
   xmlns:svg="http://www.w3.org/2000/svg"><sodipodi:namedview
   id="namedview12"
   pagecolor="#ffffff"
   bordercolor="#000000"
   borderopacity="0.25"
   inkscape:showpageshadow="2"
   inkscape:pageopacity="0.0"
   inkscape:pagecheckerboard="true"
   inkscape:deskcolor="#d1d1d1"
   inkscape:document-units="mm"
   showgrid="false"
   inkscape:zoom="8.1038096"
   inkscape:cx="19.558702"
   inkscape:cy="33.872958"
   inkscape:window-width="1920"
   inkscape:window-height="991"
   inkscape:window-x="-9"
   inkscape:window-y="-9"
   inkscape:window-maximized="1"
   inkscape:current-layer="Camada_x0020_1" />
 <defs
   id="defs4">
  <style
   type="text/css"
   id="style2">
   <![CDATA[
    .fil0 {fill:black}
   ]]>
  </style>
 </defs>
 <g
   id="Camada_x0020_1"
   inkscape:label="Camada 1"
   inkscape:groupmode="layer"
   transform="translate(-3689.0162,-729.0977)">
  <metadata
   id="CorelCorpID_0Corel-Layer" />
  <g
   id="g386"
   transform="matrix(0.06609978,0,0,0.06753074,3576.773,933.56119)"><path
     style="clip-rule:evenodd;display:inline;fill:#ffffff;fill-rule:evenodd;stroke:#000000;stroke-width:0;image-rendering:optimizeQuality;shape-rendering:geometricPrecision;text-rendering:geometricPrecision"
     d="M 411.8607,27.812922 C 399.24811,31.405198 392.03302,43.444468 382.37306,51.448623 305.47677,126.66686 228.81368,202.17458 152.4365,277.8889 c -7.70543,9.47314 -7.65185,22.51985 -10.2445,33.99374 -7.09112,46.23385 -1.29166,96.70281 26.17982,135.70585 7.67806,11.68906 25.76568,13.20466 35.20021,2.83719 45.77619,-44.75087 91.10577,-89.95633 136.62869,-134.96447 50.81168,50.43811 101.58694,100.91289 152.35698,151.39291 -82.22798,81.56303 -164.96335,162.66452 -246.99945,244.38949 -9.06881,9.41147 -6.77285,25.39159 3.29492,33.17895 8.94894,8.4331 17.65651,21.45804 31.70483,19.02869 12.82275,-2.18714 19.76593,-14.81217 29.15868,-22.60742 76.70334,-75.72111 153.13985,-151.71416 230.22806,-227.04419 84.00851,82.32035 167.0961,165.62205 250.91553,248.10278 9.73709,9.22952 25.88634,6.28545 33.6701,-4.02731 8.16968,-8.42141 20.15637,-17.16858 17.8672,-30.48173 -1.47459,-12.98209 -14.24314,-19.90014 -22.02898,-29.12941 C 742.83461,620.84368 664.65087,544.07555 587.31637,466.455 c 63.6712,-63.35746 127.65505,-126.55105 191.73274,-189.36888 59.01564,62.07038 110.38772,130.42942 156.93815,202.35853 6.19238,11.33288 21.54541,17.68931 33.01287,10.284 13.26992,-7.34847 12.31732,-24.36665 13.27925,-37.44698 1.31347,-36.17011 0.80208,-72.81445 -8.11948,-108.10905 C 954.93813,258.75399 901.02273,183.28059 830.91322,131.79758 752.19632,74.158138 655.45819,43.100346 558.28064,39.270499 c -10.34643,-0.761807 -22.63012,-2.123235 -30.03731,6.908109 -9.98669,10.13852 -6.18224,28.295893 5.94988,35.083328 33.35066,20.721894 66.80591,41.535664 98.23797,65.220364 34.76279,25.73691 67.91076,53.64107 99.3485,83.34402 C 668.0479,293.37894 603.77074,356.67903 539.70373,420.05128 488.87254,369.62287 438.04125,319.19456 387.20987,268.76635 429.87093,226.19609 472.86122,183.90629 515.315,141.15917 c 9.24431,-9.61217 6.58973,-25.93096 -3.90609,-33.53992 -27.32009,-25.303768 -53.90454,-51.444864 -81.96197,-75.928908 -5.09921,-3.612243 -11.47592,-4.691456 -17.58624,-3.87742 z"
     id="path312"
     transform="scale(26.458333)" /><path
     class="fil0"
     d="M 4450.5,7729.07 11014.09,1258.9 13233.33,3347.65 9439.93,7111.17 14282.19,11909.11 20177.6,6077.3 C 18370.51,4306.93 16409.02,2814.5 14292.28,1601.48 c 6167.42,-1.9 11958.74,4394.63 11066.54,10969.18 -1435.91,-2277.47 -3015.96,-4295.4 -4740.63,-6053.05 l -5893.54,5829.94 7029.66,6965.35 -438.41,442.46 L 14281.81,12785.62 7334.5,19658 6896.09,19215.55 13839.32,12347.18 8997.76,7549.9 4943.75,11571.98 C 4315.77,10683.11 4023.3,9305 4450.5,7729.07 Z"
     id="path7"
     style="display:inline;fill:#000000" /></g>
 </g>
</svg>
