<?xml version="1.0" encoding="UTF-8" standalone="no"?>
<!-- Creator: CorelDRAW -->

<svg
   xml:space="preserve"
   width="297mm"
   height="210mm"
   version="1.1"
   style="shape-rendering:geometricPrecision; text-rendering:geometricPrecision; image-rendering:optimizeQuality; fill-rule:evenodd; clip-rule:evenodd"
   viewBox="0 0 29700 21000"
   id="svg10"
   xmlns="http://www.w3.org/2000/svg"
   xmlns:svg="http://www.w3.org/2000/svg">
 <defs
   id="defs4">
  <style
   type="text/css"
   id="style2">
   <![CDATA[
    .fil0 {fill:black}
   ]]>
  </style>
 </defs>
 <g
   id="Camada_x0020_1"
   style="display:inline">
  <metadata
   id="CorelCorpID_0Corel-Layer" />
  
 <g
   id="g261"><path
     style="display:inline;fill:#ffffff;stroke:#000000;stroke-width:0"
     d="M 555.75521,5.5355911 C 545.14577,8.4100131 541.01889,19.253819 539.10415,29.011092 517.52892,106.81516 496.21737,184.6928 474.39687,262.42866 c -95.6116,66.24443 -193.28554,129.46565 -288.84658,195.779 -8.96043,5.17963 -16.51773,15.33723 -13.1413,26.09672 2.7372,11.05843 15.11559,16.76571 25.77548,14.22478 88.82737,-9.69165 177.60048,-19.88293 266.35785,-30.19425 8.24753,80.0236 25.25281,158.96795 47.49503,236.21414 -20.05029,17.3698 -40.82812,33.9998 -60.53473,51.69857 -9.92077,9.22366 -6.00893,27.46372 6.63669,32.1195 12.45379,3.33305 25.81722,1.33201 38.65346,2.26365 53.8003,0.64961 107.66654,0.94696 161.42613,-0.81882 13.46319,-0.46731 22.91253,-16.54633 16.37863,-28.41759 -5.8559,-10.0469 -16.97475,-15.81157 -25.18682,-23.87265 -13.00406,-11.01036 -26.00749,-22.02148 -39.01106,-33.03244 22.25497,-77.23282 39.34321,-156.15281 47.54515,-236.17558 90.83738,10.45416 181.66229,21.09139 272.58593,30.74558 12.47793,0.64659 23.23824,-11.89876 20.26428,-24.10722 C 948.02544,462.1477 934.13809,457.28177 924.95779,449.76266 833.10247,386.81602 740.00837,325.69694 648.1616,262.73715 625.08047,181.31137 603.30071,98.974417 579.61744,17.462852 575.68379,8.1349928 565.54512,3.2399646 555.75521,5.5355911 Z"
     id="path256"
     transform="scale(26.458333)" /><path
     class="fil0"
     d="m 12992.27,7292.77 c 619.15,-2238.53 1238.2,-4476.52 1857.2,-6714.44 619,2237.92 1238.05,4475.91 1857.2,6714.44 l 8095.41,5428.71 -7857.31,-904.81 c -190.92,2333.4 -689.1,4666.79 -1381,7000.16 l 1857.19,1571.48 -2333.48,39.55 0.09,8.07 -238.1,-4.04 -238.1,4.04 0.09,-8.07 -2333.48,-39.55 1857.19,-1571.48 c -691.9,-2333.37 -1190.08,-4666.76 -1381,-7000.16 l -7857.31,904.81 z"
     id="path7"
     style="clip-rule:evenodd;fill-rule:evenodd;image-rendering:optimizeQuality;shape-rendering:geometricPrecision;text-rendering:geometricPrecision" /></g></g>
</svg>
