<?xml version="1.0" standalone="no"?>
<!DOCTYPE svg PUBLIC "-//W3C//DTD SVG 20010904//EN"
 "http://www.w3.org/TR/2001/REC-SVG-20010904/DTD/svg10.dtd">
<svg version="1.0" xmlns="http://www.w3.org/2000/svg"
 width="169.000000pt" height="138.000000pt" viewBox="0 0 169.000000 138.000000"
 preserveAspectRatio="xMidYMid meet">
<metadata>
Created by potrace 1.15, written by Peter Selinger 2001-2017
</metadata>
<g transform="translate(0.000000,138.000000) scale(0.100000,-0.100000)"
fill="#000000" stroke="none">
<path d="M417 1047 c-218 -83 -396 -155 -394 -160 2 -6 36 -22 77 -37 l75 -27
3 -104 c2 -84 0 -104 -13 -111 -19 -11 -20 -52 0 -68 12 -10 12 -15 1 -33 -14
-23 -20 -95 -21 -237 l0 -85 53 -3 52 -3 0 43 c0 84 -19 268 -29 287 -8 14 -7
22 4 31 19 16 19 49 0 70 -12 14 -15 37 -13 107 l3 90 120 -44 c66 -24 138
-51 160 -60 22 -8 56 -21 75 -28 19 -7 53 -20 75 -28 22 -9 73 -28 113 -42
l72 -27 83 31 c45 16 195 73 332 126 138 52 280 107 318 121 71 27 81 38 45
49 -13 4 -63 23 -113 42 -49 20 -101 39 -115 43 -14 5 -47 17 -75 28 -184 72
-476 182 -482 182 -5 -1 -187 -69 -406 -153z"/>
<path d="M350 550 l0 -169 48 -24 c101 -51 204 -80 347 -97 162 -19 391 27
513 104 l42 26 0 160 c0 125 -3 160 -13 160 -7 0 -17 -4 -22 -9 -6 -4 -48 -22
-95 -39 -47 -17 -142 -53 -212 -80 l-128 -50 -172 68 c-95 38 -203 80 -240 94
l-68 25 0 -169z"/>
</g>
</svg>
