<?xml version="1.0" standalone="no"?>
<!DOCTYPE svg PUBLIC "-//W3C//DTD SVG 20010904//EN"
 "http://www.w3.org/TR/2001/REC-SVG-20010904/DTD/svg10.dtd">
<svg version="1.0" xmlns="http://www.w3.org/2000/svg"
 width="868.000000pt" height="928.000000pt" viewBox="0 0 868.000000 928.000000"
 preserveAspectRatio="xMidYMid meet">
<metadata>
Created by potrace 1.15, written by Peter Selinger 2001-2017
</metadata>
<g transform="translate(0.000000,928.000000) scale(0.100000,-0.100000)"
fill="#000000" stroke="none">
<path d="M1798 8844 c-184 -34 -406 -130 -605 -264 -65 -44 -128 -89 -141 -99
l-22 -19 2 -891 3 -890 70 45 c168 109 323 179 508 230 137 38 359 45 477 15
92 -23 208 -74 268 -117 20 -15 109 -100 197 -188 126 -127 176 -170 235 -203
281 -157 614 -149 1020 24 99 43 300 151 328 177 9 9 12 197 10 898 l-3 887
-118 -82 c-346 -242 -710 -352 -967 -291 -137 32 -278 122 -371 237 -25 31
-74 103 -109 160 -90 145 -207 260 -320 316 -139 68 -291 86 -462 55z"/>
<path d="M430 4675 l0 -3935 185 0 185 0 0 3935 0 3935 -185 0 -185 0 0 -3935z"/>
<path d="M5718 6694 c-184 -34 -406 -130 -605 -264 -65 -44 -128 -89 -141 -99
l-22 -19 2 -891 3 -890 70 45 c168 109 323 179 508 230 137 38 359 45 477 15
92 -23 208 -74 268 -117 20 -15 109 -100 197 -188 126 -127 176 -170 235 -203
281 -157 614 -149 1020 24 99 43 300 151 328 177 9 9 12 197 10 898 l-3 887
-118 -82 c-346 -242 -710 -352 -967 -291 -137 32 -278 122 -371 237 -25 31
-74 103 -109 160 -90 145 -207 260 -320 316 -139 68 -291 86 -462 55z"/>
<path d="M4350 3590 l0 -2870 185 0 185 0 0 2870 0 2870 -185 0 -185 0 0
-2870z"/>
</g>
</svg>
