<?xml version="1.0" standalone="no"?>
<!DOCTYPE svg PUBLIC "-//W3C//DTD SVG 20010904//EN"
 "http://www.w3.org/TR/2001/REC-SVG-20010904/DTD/svg10.dtd">
<svg version="1.0" xmlns="http://www.w3.org/2000/svg"
 width="1706.000000pt" height="1614.000000pt" viewBox="0 0 1706.000000 1614.000000"
 preserveAspectRatio="xMidYMid meet">
<metadata>
Created by potrace 1.15, written by Peter Selinger 2001-2017
</metadata>
<g transform="translate(0.000000,1614.000000) scale(0.100000,-0.100000)"
fill="#000000" stroke="none">
<path d="M326 16119 c-127 -44 -233 -138 -291 -261 -34 -70 -35 -76 -35 -194
l0 -122 40 -79 c66 -133 173 -223 305 -257 73 -19 434 -82 997 -176 1453 -242
1405 -232 1424 -294 4 -12 144 -367 311 -791 168 -423 716 -1809 1218 -3080
502 -1270 1136 -2872 1408 -3560 516 -1304 653 -1653 693 -1769 l24 -70 -27
-29 c-37 -39 -244 -206 -663 -532 -615 -480 -668 -525 -802 -685 -197 -234
-325 -489 -384 -760 -28 -129 -26 -474 4 -582 28 -103 86 -221 170 -348 170
-257 360 -425 625 -555 l127 -62 -77 -28 c-155 -55 -260 -120 -374 -234 -193
-193 -289 -423 -289 -690 0 -190 51 -360 154 -515 136 -205 341 -354 573 -418
67 -18 106 -22 268 -22 211 -1 223 1 401 84 214 99 374 258 475 474 65 139 83
228 84 401 0 126 -4 163 -23 235 -29 106 -88 233 -146 313 -52 73 -192 211
-255 253 l-45 29 230 3 c342 5 7915 -18 7945 -24 26 -5 23 -9 -68 -102 -218
-225 -306 -427 -307 -707 0 -146 21 -252 73 -375 102 -239 326 -450 567 -534
131 -46 225 -59 378 -53 153 5 253 28 380 86 196 89 378 272 471 474 64 139
80 221 80 412 -1 160 -2 175 -29 255 -33 99 -93 221 -146 300 -40 58 -171 189
-221 219 l-29 18 76 7 c42 3 172 6 288 6 116 1 280 5 363 10 186 10 226 26
324 122 117 115 153 208 147 377 -3 86 -7 103 -38 166 -49 98 -134 182 -235
233 l-81 40 -1769 11 c-974 6 -3163 16 -4865 22 -1702 6 -3291 14 -3530 18
l-435 7 -65 31 c-80 39 -152 109 -187 183 -22 44 -28 73 -31 150 -5 108 10
165 78 299 51 101 100 165 179 232 158 134 989 787 1665 1308 l109 84 546 44
c300 23 951 74 1446 113 6318 494 6352 497 6498 520 160 25 317 160 362 314
20 66 64 374 115 800 22 186 101 833 175 1437 219 1783 344 2812 365 2999 27
236 26 343 -1 417 -58 154 -201 275 -368 308 -38 7 -181 16 -341 19 -151 4
-444 11 -650 16 -206 6 -841 21 -1410 35 -985 24 -1750 43 -2635 65 -220 5
-677 17 -1015 25 -338 8 -977 24 -1420 35 -443 11 -1372 33 -2065 50 -2048 48
-2105 50 -2228 56 -87 5 -123 11 -138 23 -13 10 -217 515 -573 1416 -643 1628
-673 1702 -721 1760 -38 47 -108 101 -170 133 -62 31 -200 56 -1584 287 -1250
208 -1283 212 -1395 174z"/>
</g>
</svg>
