<?xml version="1.0" standalone="no"?>
<!DOCTYPE svg PUBLIC "-//W3C//DTD SVG 20010904//EN"
 "http://www.w3.org/TR/2001/REC-SVG-20010904/DTD/svg10.dtd">
<svg version="1.0" xmlns="http://www.w3.org/2000/svg"
 width="264.000000pt" height="262.000000pt" viewBox="0 0 264.000000 262.000000"
 preserveAspectRatio="xMidYMid meet">
<metadata>
Created by potrace 1.15, written by Peter Selinger 2001-2017
</metadata>
<g transform="translate(0.000000,262.000000) scale(0.100000,-0.100000)"
fill="#000000" stroke="none">
<path d="M1915 2065 c-221 -178 -286 -235 -307 -273 -34 -57 -34 -63 -6 -118
35 -71 18 -108 -105 -227 -56 -54 -117 -110 -134 -124 l-33 -25 -32 25 c-18
14 -86 76 -150 139 -131 127 -141 147 -118 242 26 107 -29 244 -148 367 -154
162 -351 210 -499 123 -88 -51 -135 -171 -115 -291 18 -110 64 -191 157 -282
126 -123 257 -176 375 -151 109 23 116 18 377 -271 l23 -25 -217 -200 c-119
-109 -274 -250 -343 -313 -69 -63 -132 -126 -142 -139 -59 -89 2 -212 106
-212 51 0 102 40 226 176 350 385 493 539 500 539 7 0 137 -140 503 -542 138
-151 179 -180 241 -170 79 13 128 87 107 163 -13 50 -8 45 -398 401 l-322 296
39 46 c21 25 76 85 122 133 68 71 91 89 128 98 40 11 49 10 85 -9 50 -26 58
-26 112 0 36 17 83 70 265 298 122 152 225 281 229 287 5 6 -1 19 -15 33 l-23
22 -194 -210 -194 -209 -27 26 -27 25 116 126 c65 69 153 163 197 209 l79 83
-28 29 c-34 35 -11 50 -205 -131 -74 -69 -160 -149 -190 -177 l-55 -51 -22 21
c-13 12 -23 26 -22 32 0 6 81 85 180 176 99 91 191 177 204 191 l25 25 -23 22
-23 21 -279 -224z"/>
</g>
</svg>
