<?xml version="1.0" standalone="no"?>
<!DOCTYPE svg PUBLIC "-//W3C//DTD SVG 20010904//EN"
 "http://www.w3.org/TR/2001/REC-SVG-20010904/DTD/svg10.dtd">
<svg version="1.0" xmlns="http://www.w3.org/2000/svg"
 width="466.000000pt" height="446.000000pt" viewBox="0 0 466.000000 446.000000"
 preserveAspectRatio="xMidYMid meet">
<metadata>
Created by potrace 1.15, written by Peter Selinger 2001-2017
</metadata>
<g transform="translate(0.000000,446.000000) scale(0.100000,-0.100000)"
fill="#000000" stroke="none">
<path d="M2130 4453 c-458 -75 -804 -280 -1101 -653 -167 -209 -317 -540 -374
-825 -24 -122 -45 -300 -45 -386 l0 -48 -242 -3 c-271 -3 -282 -6 -335 -74
-21 -29 -28 -50 -31 -98 -3 -58 15 -115 368 -1166 239 -710 380 -1116 395
-1136 53 -69 -66 -64 1565 -64 1632 0 1512 -5 1565 64 16 21 154 419 395 1137
353 1050 371 1107 368 1165 -3 48 -10 69 -31 98 -53 68 -64 71 -334 74 l-243
3 0 48 c0 26 -5 97 -11 157 -71 731 -511 1359 -1124 1605 -198 79 -365 110
-594 108 -91 -1 -177 -4 -191 -6z m396 -378 c401 -70 753 -346 963 -755 71
-139 111 -249 145 -401 23 -104 46 -279 46 -350 l0 -29 -1350 0 -1350 0 0 23
c0 71 24 258 46 356 106 471 390 853 782 1050 83 42 221 87 318 105 107 19
292 19 400 1z"/>
</g>
</svg>
