<?xml version="1.0" standalone="no"?>
<!DOCTYPE svg PUBLIC "-//W3C//DTD SVG 20010904//EN"
 "http://www.w3.org/TR/2001/REC-SVG-20010904/DTD/svg10.dtd">
<svg version="1.0" xmlns="http://www.w3.org/2000/svg"
 width="566.000000pt" height="561.000000pt" viewBox="0 0 566.000000 561.000000"
 preserveAspectRatio="xMidYMid meet">
<metadata>
Created by potrace 1.15, written by Peter Selinger 2001-2017
</metadata>
<g transform="translate(0.000000,561.000000) scale(0.100000,-0.100000)"
fill="#000000" stroke="none">
<path d="M3810 4595 c0 -12 -18 -15 -100 -15 -60 0 -100 -4 -100 -10 0 -5 -16
-10 -35 -10 -19 0 -35 -4 -35 -10 0 -5 -11 -10 -25 -10 -14 0 -25 -4 -25 -10
0 -5 -13 -10 -30 -10 -20 0 -30 -5 -30 -15 0 -11 -12 -15 -45 -15 -25 0 -45
-4 -45 -10 0 -5 -15 -10 -33 -10 -21 0 -38 -7 -47 -20 -8 -11 -25 -20 -37 -20
-13 0 -23 -5 -23 -10 0 -18 -48 -60 -67 -60 -10 0 -25 -9 -33 -20 -8 -11 -25
-20 -37 -20 -13 0 -23 -5 -23 -10 0 -17 -47 -60 -65 -60 -19 0 -45 -23 -45
-39 0 -6 -4 -11 -10 -11 -5 0 -10 7 -10 15 0 11 -12 15 -45 15 -33 0 -45 -4
-45 -15 0 -8 -4 -15 -10 -15 -5 0 -10 7 -10 15 0 8 -7 15 -15 15 -8 0 -15 5
-15 10 0 6 -8 10 -18 10 -10 0 -24 9 -32 20 -8 11 -20 20 -27 20 -7 0 -13 7
-13 15 0 8 -8 15 -18 15 -10 0 -24 9 -32 20 -8 11 -23 20 -33 20 -19 0 -67 42
-67 60 0 5 -10 10 -23 10 -12 0 -29 9 -37 20 -9 13 -26 20 -47 20 -18 0 -33 5
-33 10 0 6 -20 10 -45 10 -33 0 -45 4 -45 15 0 11 -12 15 -45 15 -25 0 -45 5
-45 10 0 6 -20 10 -45 10 -25 0 -45 5 -45 10 0 6 -9 10 -20 10 -11 0 -20 5
-20 10 0 6 -108 10 -305 10 -197 0 -305 -4 -305 -10 0 -5 -20 -10 -45 -10 -25
0 -45 -4 -45 -10 0 -5 -16 -10 -35 -10 -19 0 -35 -4 -35 -10 0 -5 -20 -10 -45
-10 -33 0 -45 -4 -45 -15 0 -11 -12 -15 -45 -15 -25 0 -45 -4 -45 -10 0 -5 -9
-10 -20 -10 -19 0 -20 -7 -20 -100 0 -82 -3 -100 -15 -100 -8 0 -15 -4 -15
-10 0 -5 -13 -10 -30 -10 -16 0 -30 -4 -30 -10 0 -5 -16 -10 -35 -10 -24 0
-35 -5 -35 -15 0 -10 -11 -15 -35 -15 -19 0 -35 -4 -35 -10 0 -5 -20 -10 -45
-10 -25 0 -45 -4 -45 -10 0 -5 -16 -10 -35 -10 -19 0 -35 -4 -35 -10 0 -5 -20
-10 -45 -10 -33 0 -45 -4 -45 -15 0 -8 -9 -15 -20 -15 -11 0 -20 -4 -20 -10 0
-5 -11 -10 -25 -10 l-25 0 0 -1650 0 -1650 80 0 c47 0 80 4 80 10 0 6 20 10
45 10 25 0 45 5 45 10 0 6 33 10 80 10 64 0 80 3 80 15 0 12 19 15 110 15 67
0 110 4 110 10 0 6 72 10 195 10 123 0 195 4 195 10 0 6 58 10 155 10 97 0
155 -4 155 -10 0 -6 52 -10 135 -10 83 0 135 -4 135 -10 0 -6 40 -10 100 -10
82 0 100 -3 100 -15 0 -12 13 -15 60 -15 33 0 60 -4 60 -10 0 -5 20 -10 45
-10 25 0 45 -4 45 -10 0 -5 25 -10 55 -10 30 0 55 -4 55 -10 0 -5 25 -10 55
-10 42 0 55 -3 55 -15 0 -11 12 -15 45 -15 25 0 45 -4 45 -10 0 -5 16 -10 35
-10 19 0 35 5 35 10 0 6 20 10 45 10 33 0 45 4 45 15 0 10 11 15 35 15 19 0
35 5 35 10 0 6 25 10 55 10 30 0 55 5 55 10 0 6 16 10 35 10 19 0 35 5 35 10
0 6 25 10 55 10 42 0 55 3 55 15 0 12 19 15 110 15 67 0 110 4 110 10 0 6 33
10 80 10 47 0 80 4 80 10 0 6 60 10 160 10 100 0 160 -4 160 -10 0 -6 70 -10
190 -10 120 0 190 -4 190 -10 0 -6 40 -10 100 -10 82 0 100 -3 100 -15 0 -12
19 -15 115 -15 70 0 115 -4 115 -10 0 -6 37 -10 90 -10 53 0 90 -4 90 -10 0
-6 32 -10 75 -10 l75 0 0 1650 c0 1643 0 1650 -20 1650 -11 0 -20 5 -20 10 0
6 -11 10 -25 10 -16 0 -25 6 -25 15 0 11 -12 15 -45 15 -25 0 -45 5 -45 10 0
6 -13 10 -30 10 -16 0 -30 5 -30 10 0 6 -20 10 -45 10 -25 0 -45 5 -45 10 0 6
-16 10 -35 10 -24 0 -35 5 -35 15 0 10 -11 15 -35 15 -19 0 -35 5 -35 10 0 6
-14 10 -31 10 -51 0 -59 17 -59 124 0 89 -1 96 -20 96 -11 0 -20 5 -20 10 0 6
-20 10 -45 10 -33 0 -45 4 -45 15 0 10 -11 15 -35 15 -19 0 -35 5 -35 10 0 6
-20 10 -45 10 -25 0 -45 5 -45 10 0 6 -30 10 -70 10 -40 0 -70 4 -70 10 0 6
-28 10 -65 10 -51 0 -65 3 -65 15 0 13 -22 15 -135 15 -113 0 -135 -2 -135
-15z m-2720 -1730 l0 -1385 325 0 c210 0 325 -4 325 -10 0 -6 33 -10 80 -10
47 0 80 -4 80 -10 0 -5 20 -10 45 -10 25 0 45 -4 45 -10 0 -5 20 -10 45 -10
33 0 45 -4 45 -15 0 -10 10 -15 30 -15 17 0 30 -4 30 -10 0 -5 16 -10 35 -10
19 0 35 -4 35 -10 0 -5 20 -10 45 -10 25 0 45 -4 45 -10 0 -5 16 -10 35 -10
19 0 35 -4 35 -10 0 -5 9 -10 20 -10 11 0 20 -7 20 -15 0 -9 9 -15 25 -15 14
0 25 -4 25 -10 0 -5 9 -10 20 -10 11 0 20 -4 20 -10 0 -5 11 -10 25 -10 14 0
25 -4 25 -10 0 -5 9 -10 20 -10 20 0 20 7 20 1470 0 1300 2 1470 15 1470 8 0
15 -4 15 -10 0 -5 9 -10 20 -10 11 0 20 -5 20 -11 0 -14 25 -39 39 -39 6 0 11
-4 11 -10 0 -5 7 -10 16 -10 18 0 44 -23 44 -39 0 -6 7 -11 15 -11 8 0 15 7
15 15 0 8 9 15 20 15 11 0 20 5 20 10 0 6 14 10 31 10 30 0 59 -19 59 -39 0
-6 5 -11 10 -11 6 0 10 7 10 15 0 9 9 15 21 15 12 0 34 14 49 30 15 17 37 30
49 30 12 0 21 5 21 11 0 17 27 39 49 39 l21 0 0 -1470 c0 -973 3 -1470 10
-1470 6 0 10 5 10 10 0 6 9 10 20 10 11 0 20 5 20 10 0 6 11 10 25 10 14 0 25
5 25 10 0 6 9 10 20 10 11 0 20 7 20 15 0 9 9 15 25 15 14 0 25 5 25 10 0 6
16 10 35 10 19 0 35 5 35 10 0 6 20 10 45 10 25 0 45 5 45 10 0 6 20 10 45 10
25 0 45 5 45 10 0 6 14 10 30 10 20 0 30 5 30 15 0 11 12 15 45 15 25 0 45 5
45 10 0 6 20 10 45 10 25 0 45 5 45 10 0 6 33 10 80 10 47 0 80 4 80 10 0 6
112 10 315 10 l315 0 0 1385 c0 917 3 1385 10 1385 6 0 10 -4 10 -10 0 -5 16
-10 35 -10 24 0 35 -5 35 -15 0 -10 11 -15 35 -15 19 0 35 -4 35 -10 0 -5 16
-10 35 -10 19 0 35 -4 35 -10 0 -5 20 -10 45 -10 25 0 45 -4 45 -10 0 -5 14
-10 30 -10 20 0 30 -5 30 -15 0 -9 9 -15 25 -15 l25 0 0 -1595 0 -1595 -25 0
c-16 0 -25 6 -25 15 0 12 -17 15 -90 15 -53 0 -90 4 -90 10 0 6 -52 10 -135
10 -83 0 -135 4 -135 10 0 6 -137 10 -390 10 -253 0 -390 -4 -390 -10 0 -6
-30 -10 -70 -10 -40 0 -70 -4 -70 -10 0 -5 -25 -10 -55 -10 -42 0 -55 -3 -55
-15 0 -12 -14 -15 -70 -15 -40 0 -70 -4 -70 -10 0 -6 -28 -10 -65 -10 -37 0
-65 -4 -65 -10 0 -5 -16 -10 -35 -10 -31 0 -35 -3 -35 -25 0 -18 -5 -25 -20
-25 -11 0 -20 -4 -20 -10 0 -5 -20 -10 -45 -10 -25 0 -45 -4 -45 -10 0 -5 -16
-10 -35 -10 -19 0 -35 -4 -35 -10 0 -5 -20 -10 -45 -10 -33 0 -45 -4 -45 -15
0 -10 -11 -15 -35 -15 -24 0 -35 5 -35 15 0 11 -12 15 -45 15 -25 0 -45 5 -45
10 0 6 -25 10 -55 10 -30 0 -55 5 -55 10 0 6 -14 10 -31 10 -30 0 -59 19 -59
39 0 6 -11 11 -25 11 -14 0 -25 5 -25 10 0 6 -20 10 -45 10 -25 0 -45 5 -45
10 0 6 -9 10 -20 10 -11 0 -20 5 -20 10 0 6 -16 10 -35 10 -24 0 -35 5 -35 15
0 12 -13 15 -55 15 -30 0 -55 5 -55 10 0 6 -45 10 -115 10 -70 0 -115 4 -115
10 0 7 -142 10 -405 10 -263 0 -405 -3 -405 -10 0 -6 -55 -10 -145 -10 -90 0
-145 -4 -145 -10 0 -6 -28 -10 -65 -10 -51 0 -65 -3 -65 -15 0 -10 -11 -15
-35 -15 l-35 0 0 1595 c0 1588 0 1595 20 1595 11 0 20 7 20 15 0 10 11 15 35
15 19 0 35 5 35 10 0 6 20 10 45 10 25 0 45 5 45 10 0 6 16 10 35 10 19 0 35
5 35 10 0 6 16 10 35 10 24 0 35 5 35 15 0 10 10 15 30 15 17 0 30 5 30 10 0
6 7 10 15 10 13 0 15 -161 15 -1385z"/>
</g>
</svg>
