<?xml version="1.0" standalone="no"?>
<!DOCTYPE svg PUBLIC "-//W3C//DTD SVG 20010904//EN"
 "http://www.w3.org/TR/2001/REC-SVG-20010904/DTD/svg10.dtd">
<svg version="1.0" xmlns="http://www.w3.org/2000/svg"
 width="225.000000pt" height="225.000000pt" viewBox="0 0 225.000000 225.000000"
 preserveAspectRatio="xMidYMid meet">
<metadata>
Created by potrace 1.15, written by Peter Selinger 2001-2017
</metadata>
<g transform="translate(0.000000,225.000000) scale(0.100000,-0.100000)"
fill="#000000" stroke="none">
<path d="M800 2125 c0 -8 4 -15 9 -15 5 0 26 -34 48 -75 l38 -75 380 0 380 0
43 83 c23 45 42 85 42 90 0 4 -211 7 -470 7 -411 0 -470 -2 -470 -15z"/>
<path d="M900 1763 c0 -132 19 -224 61 -304 65 -121 166 -179 314 -179 148 0
249 58 314 179 42 80 61 172 61 304 l0 107 -375 0 -375 0 0 -107z"/>
<path d="M232 1634 c-18 -9 -43 -31 -55 -48 -22 -30 -22 -38 -25 -371 -2 -304
-1 -344 14 -378 20 -44 85 -87 130 -86 16 0 123 22 239 48 l210 47 5 -325 5
-326 425 493 c234 271 427 497 428 503 2 5 -118 9 -313 9 l-316 0 -254 -55
c-141 -30 -260 -55 -265 -55 -6 0 -10 82 -10 221 0 244 -5 270 -63 311 -39 28
-112 34 -155 12z"/>
<path d="M1567 861 c-468 -549 -584 -687 -591 -699 -6 -9 79 -12 409 -12 l416
0 -3 442 c-3 383 -5 447 -19 472 l-16 29 -196 -232z"/>
</g>
</svg>
