<?xml version="1.0" standalone="no"?>
<!DOCTYPE svg PUBLIC "-//W3C//DTD SVG 20010904//EN"
 "http://www.w3.org/TR/2001/REC-SVG-20010904/DTD/svg10.dtd">
<svg version="1.0" xmlns="http://www.w3.org/2000/svg"
 width="672.000000pt" height="671.000000pt" viewBox="0 0 672.000000 671.000000"
 preserveAspectRatio="xMidYMid meet">
<metadata>
Created by potrace 1.15, written by Peter Selinger 2001-2017
</metadata>
<g transform="translate(0.000000,671.000000) scale(0.100000,-0.100000)"
fill="#000000" stroke="none">
<path d="M2405 5534 c-16 -2 -75 -9 -130 -15 -161 -18 -280 -71 -432 -191 -60
-47 -147 -158 -190 -241 l-19 -39 -190 -2 c-183 -3 -192 -4 -269 -33 -117 -44
-180 -78 -275 -149 -296 -222 -393 -526 -265 -832 52 -124 104 -228 129 -255
12 -13 35 -42 53 -64 l32 -41 -35 -58 c-105 -175 -131 -372 -69 -525 31 -77
115 -173 192 -222 93 -58 222 -117 303 -138 105 -27 336 -35 450 -16 135 24
314 95 470 187 29 17 54 29 57 27 2 -3 -5 -510 -17 -1128 -11 -618 -20 -1132
-20 -1141 0 -17 21 -18 301 -18 l301 0 -6 103 c-4 56 -29 568 -56 1137 -27
569 -51 1050 -53 1068 -2 18 -1 31 2 30 4 -2 62 -36 131 -77 132 -79 236 -122
397 -166 88 -24 115 -27 263 -27 194 0 285 15 393 65 100 47 213 125 264 184
210 242 232 377 105 645 l-50 107 45 68 c265 401 261 744 -11 1006 -101 97
-215 163 -366 213 l-115 38 -180 0 c-100 0 -196 -5 -215 -11 l-36 -10 -69 106
c-38 58 -95 131 -126 162 -78 77 -220 169 -304 197 -119 40 -307 67 -390 56z"/>
<path d="M3930 2345 l0 -185 -140 0 -140 0 0 -150 0 -150 140 0 140 0 0 -215
0 -215 -200 0 -200 0 0 -70 0 -70 201 0 c186 0 200 -1 195 -17 -3 -10 -32
-148 -66 -308 -34 -159 -64 -300 -67 -312 -5 -22 -3 -23 65 -23 64 0 70 2 75
23 3 12 33 153 67 312 34 160 63 298 66 308 5 16 48 17 719 17 671 0 714 -1
719 -17 3 -10 32 -148 66 -308 34 -159 64 -300 67 -312 5 -21 11 -23 75 -23
68 0 70 1 65 22 -3 13 -33 154 -67 313 -34 160 -63 298 -66 308 -5 16 9 17
195 17 l201 0 0 70 0 70 -200 0 -200 0 0 215 0 215 140 0 140 0 0 150 0 150
-140 0 -140 0 0 185 0 185 -70 0 -70 0 0 -185 0 -185 -715 0 -715 0 0 185 0
185 -70 0 -70 0 0 -185z m1570 -700 l0 -215 -715 0 -715 0 0 215 0 215 715 0
715 0 0 -215z"/>
</g>
</svg>
