<?xml version="1.0" standalone="no"?>
<!DOCTYPE svg PUBLIC "-//W3C//DTD SVG 20010904//EN"
 "http://www.w3.org/TR/2001/REC-SVG-20010904/DTD/svg10.dtd">
<svg version="1.0" xmlns="http://www.w3.org/2000/svg"
 width="382.000000pt" height="455.000000pt" viewBox="0 0 382.000000 455.000000"
 preserveAspectRatio="xMidYMid meet">
<metadata>
Created by potrace 1.15, written by Peter Selinger 2001-2017
</metadata>
<g transform="translate(0.000000,455.000000) scale(0.100000,-0.100000)"
fill="#000000" stroke="none">
<path d="M1608 4359 c-325 -22 -763 -120 -953 -214 -162 -80 -287 -203 -364
-360 l-39 -80 -71 -670 -71 -670 0 -892 0 -892 127 -3 128 -3 5 -170 c5 -165
6 -172 34 -223 47 -84 119 -124 221 -124 102 0 182 50 226 140 20 42 23 66 27
215 l4 167 987 -2 986 -3 5 -175 c5 -169 6 -177 33 -222 49 -84 114 -120 217
-121 106 0 191 55 231 148 8 18 15 96 19 200 l5 170 133 3 132 3 0 857 0 857
-60 560 c-101 949 -96 911 -130 982 -93 200 -367 349 -820 447 -333 72 -680
98 -1012 75z m922 -344 c59 -31 69 -107 21 -156 l-29 -29 -665 0 -665 0 -31
29 c-50 47 -41 124 17 155 41 23 1309 23 1352 1z m525 -418 c33 -10 77 -29 97
-44 71 -48 74 -63 146 -640 l66 -525 -24 -45 c-13 -25 -38 -54 -55 -64 -29
-18 -85 -19 -1417 -19 l-1387 0 -34 29 c-65 58 -65 47 3 631 60 518 69 573 98
618 19 30 83 62 141 72 25 4 555 7 1176 6 1050 -1 1134 -3 1190 -19z m-2184
-1798 c55 -19 97 -57 125 -111 22 -44 26 -61 22 -124 -3 -61 -8 -79 -33 -115
-97 -138 -321 -118 -394 34 -84 174 96 377 280 316z m2096 -4 c61 -26 104 -65
129 -119 73 -156 -32 -319 -206 -319 -131 0 -231 94 -232 217 -2 161 166 281
309 221z"/>
</g>
</svg>
