<?xml version="1.0" standalone="no"?>
<!DOCTYPE svg PUBLIC "-//W3C//DTD SVG 20010904//EN"
 "http://www.w3.org/TR/2001/REC-SVG-20010904/DTD/svg10.dtd">
<svg version="1.0" xmlns="http://www.w3.org/2000/svg"
 width="512.000000pt" height="512.000000pt" viewBox="0 0 512.000000 512.000000"
 preserveAspectRatio="xMidYMid meet">
<metadata>
Created by potrace 1.15, written by Peter Selinger 2001-2017
</metadata>
<g transform="translate(0.000000,512.000000) scale(0.100000,-0.100000)"
fill="#000000" stroke="none">
<path d="M2330 5104 c-167 -30 -326 -97 -413 -175 -44 -38 -91 -118 -102 -171
l-5 -28 -165 0 -165 0 2 -2242 3 -2243 303 -3 302 -2 0 -120 0 -120 470 0 470
0 0 120 0 120 303 2 302 3 3 2243 2 2242 -165 0 -165 0 -5 28 c-11 53 -58 133
-102 171 -90 80 -247 145 -420 176 -108 18 -348 18 -453 -1z m359 -709 c171
-45 320 -187 372 -354 23 -76 28 -210 9 -281 -35 -129 -145 -272 -258 -333
-61 -33 -188 -67 -252 -67 -64 0 -191 34 -252 67 -113 61 -223 204 -258 333
-19 71 -14 205 9 281 52 165 200 308 368 354 65 18 196 18 262 0z m12 -1311
c91 -27 151 -64 225 -138 107 -107 157 -222 157 -366 0 -287 -237 -523 -523
-523 -286 0 -523 236 -523 523 0 160 70 303 197 406 60 49 101 71 176 95 72
23 217 25 291 3z m23 -1354 c87 -30 142 -65 211 -136 101 -104 147 -219 147
-364 -1 -154 -61 -284 -180 -390 -196 -175 -488 -175 -684 0 -119 106 -179
236 -180 390 0 97 12 150 52 232 73 147 211 253 375 288 61 14 193 3 259 -20z"/>
</g>
</svg>
