<?xml version="1.0" encoding="UTF-8" standalone="no"?>
<svg
   xmlns:dc="http://purl.org/dc/elements/1.1/"
   xmlns:cc="http://creativecommons.org/ns#"
   xmlns:rdf="http://www.w3.org/1999/02/22-rdf-syntax-ns#"
   xmlns:svg="http://www.w3.org/2000/svg"
   xmlns="http://www.w3.org/2000/svg"
   xmlns:sodipodi="http://sodipodi.sourceforge.net/DTD/sodipodi-0.dtd"
   xmlns:inkscape="http://www.inkscape.org/namespaces/inkscape"
   version="1.0"
   width="17"
   height="17"
   viewBox="0 0 12.749999 12.75"
   preserveAspectRatio="xMidYMid meet"
   id="svg8"
   sodipodi:docname="EDF_Edif_Comerc_Serv_Supermercado_15px_branco.svg"
   inkscape:version="0.92.3 (2405546, 2018-03-11)">
  <defs
     id="defs12" />
  <sodipodi:namedview
     pagecolor="#ffffff"
     bordercolor="#666666"
     borderopacity="1"
     objecttolerance="10"
     gridtolerance="10"
     guidetolerance="10"
     inkscape:pageopacity="0"
     inkscape:pageshadow="2"
     inkscape:window-width="1366"
     inkscape:window-height="705"
     id="namedview10"
     showgrid="false"
     units="px"
     inkscape:zoom="32"
     inkscape:cx="9.4253198"
     inkscape:cy="4.995315"
     inkscape:window-x="-8"
     inkscape:window-y="-8"
     inkscape:window-maximized="1"
     inkscape:current-layer="svg8"
     inkscape:pagecheckerboard="true" />
  <metadata
     id="metadata2">
Created by potrace 1.15, written by Peter Selinger 2001-2017
<rdf:RDF>
  <cc:Work
     rdf:about="">
    <dc:format>image/svg+xml</dc:format>
    <dc:type
       rdf:resource="http://purl.org/dc/dcmitype/StillImage" />
    <dc:title></dc:title>
  </cc:Work>
</rdf:RDF>
</metadata>
  <g
     style="fill:#ffffff;stroke:none"
     id="g830"
     transform="matrix(7.5253392e-4,0,0,-7.9470502e-4,0.00587341,13.327423)"
     inkscape:transform-center-x="-8.9867282"
     inkscape:transform-center-y="-1.4189337" />
  <g
     id="g4771">
    <path
       sodipodi:nodetypes="ccscczcccccccccccscccccccscccccczcccccccccccccccsscccccccc"
       style="fill:#ffffff;stroke:none"
       inkscape:connector-curvature="0"
       id="path828"
       d="m 564.47017,16083.345 c -127,-44 -233,-44.157 -291,-167.157 -34,-70 -49.27411,-119.053 -68.03402,-235.708 l -33.03402,-205.416 62.02268,-569.07 c 66,-133 304.79294,-455.762 481.18145,-538.53 176.3885,-82.768 279.84206,-209.293 820.81934,-376.282 567.2052,-215.979 545.5227,-197.141 718.6815,-269.568 4,-12 0,0 167.8526,-71.535 168,-423 716,-1809 1218,-3080 502,-1269.9997 879.0556,-2864.6267 1151.0556,-3552.6267 114.0861,-292.5788 183.263,-558.93 212.2517,-836.5488 l -69.5963,-240.1034 -71.4998,-159.0876 c -37,-39 -143.8231,-188.8207 -436.1927,-462.6856 -361.7392,-412.2243 -493.6407,-574.0811 -611.1236,-692.373 -197,-234 -236.9093,-572.4162 56.4536,-1093.6647 182.6993,-177.4654 1125.2576,-864.3329 2984.9843,-859.7766 3009.4741,7.3732 5861.4115,-145.5101 9145.4355,284.6139 186,10 336.113,255.3945 434.113,351.3945 117,115 153,208 147,377 -3,86 -7,103 -38,166 -49,98 -237.023,409.6864 -338.023,460.6864 v 0 l -667.866,73.5622 c -974,6 -2898.728,-46.5622 -4600.728,-40.5622 -1701.9992,6 -3290.9992,14 -3529.9992,18 l -435,7 -65,31 c -80,39 -152,109 -187,183 -22,44 -5.9773,-114.6864 -8.9773,-37.6864 -5,108 10,165 78,299 51,101 49.9621,170.6962 179,232 129.0379,61.3038 0,0 562.7525,-5.221 v 0 l 546,44 c 300,23 951,74 1446,113 6318,494 6352,497 6498,520 160,25 317,160 362,314 20,66 64,374 115,800 22,186 101,833 175,1437 117.779,1797.746 24.765,3490.318 -8.738,3677.318 27,236 0,0 -1,417 -58,154 -201,275 -368,308 0,0 -181,16 -341,19 -151,4 -444,11 -650,16 -206,6 -498.407,50.492 -1067.407,64.492 -985,24 -1750,43 -2635,65 -220,5 -677,17 -1015,25 -338,8 -976.9998,24 -1419.9998,35 -443,11 -1372,33 -2065,50 -1537.3453,-112.37 -1281.98,80.701 -1404.98,86.701 -87,5 225.7996,-22.119 0,0 -184.2963,83.731 -136.9866,-110.825 -617.5657,841.786 -643,1628 -843,1835 -891,1893 v 0 C 4128.3095,15830.297 3105,15714 1721,15945 471,16153 676.47017,16121.345 564.47017,16083.345 Z"
       transform="matrix(7.5253497e-4,0,0,-7.9470747e-4,0.00587341,13.327423)" />
    <ellipse
       ry="1.0819484"
       rx="1.1086632"
       cy="11.398184"
       cx="4.3631635"
       id="path4770"
       style="opacity:1;fill:#ffffff;fill-opacity:1;stroke:#fcffff;stroke-width:0;stroke-linecap:butt;stroke-linejoin:round;stroke-miterlimit:4;stroke-dasharray:none;stroke-opacity:1;paint-order:stroke fill markers" />
    <ellipse
       ry="1.1086632"
       rx="1.135378"
       cy="11.484758"
       cx="10.457844"
       id="path4772"
       style="opacity:1;fill:#ffffff;fill-opacity:1;stroke:#fcffff;stroke-width:0;stroke-linecap:butt;stroke-linejoin:round;stroke-miterlimit:4;stroke-dasharray:none;stroke-opacity:1;paint-order:stroke fill markers" />
  </g>
  <g
     inkscape:transform-center-y="-1.2297457"
     inkscape:transform-center-x="-7.808594"
     transform="matrix(6.5387889e-4,0,0,-6.8874579e-4,0.59359849,12.125085)"
     id="g4781"
     style="fill:#000000;stroke:none">
    <path
       d="M 326,16119 C 199,16075 93,15981 35,15858 1,15788 0,15782 0,15664 v -122 l 40,-79 c 66,-133 173,-223 305,-257 73,-19 434,-82 997,-176 1453,-242 1405,-232 1424,-294 4,-12 144,-367 311,-791 168,-423 716,-1809 1218,-3080 502,-1270 1136,-2872 1408,-3560 516,-1304 653,-1653 693,-1769 l 24,-70 -27,-29 c -37,-39 -244,-206 -663,-532 -615,-480 -668,-525 -802,-685 -197,-234 -325,-489 -384,-760 -28,-129 -26,-474 4,-582 28,-103 86,-221 170,-348 170,-257 360,-425 625,-555 l 127,-62 -77,-28 c -155,-55 -260,-120 -374,-234 -193,-193 -289,-423 -289,-690 0,-190 51,-360 154,-515 136,-205 341,-354 573,-418 67,-18 106,-22 268,-22 211,-1 223,1 401,84 214,99 374,258 475,474 65,139 83,228 84,401 0,126 -4,163 -23,235 -29,106 -88,233 -146,313 -52,73 -192,211 -255,253 l -45,29 230,3 c 342,5 7915,-18 7945,-24 26,-5 23,-9 -68,-102 -218,-225 -306,-427 -307,-707 0,-146 21,-252 73,-375 102,-239 326,-450 567,-534 131,-46 225,-59 378,-53 153,5 253,28 380,86 196,89 378,272 471,474 64,139 80,221 80,412 -1,160 -2,175 -29,255 -33,99 -93,221 -146,300 -40,58 -171,189 -221,219 l -29,18 76,7 c 42,3 172,6 288,6 116,1 280,5 363,10 186,10 226,26 324,122 117,115 153,208 147,377 -3,86 -7,103 -38,166 -49,98 -134,182 -235,233 l -81,40 -1769,11 c -974,6 -3163,16 -4865,22 -1702,6 -3291,14 -3530,18 l -435,7 -65,31 c -80,39 -152,109 -187,183 -22,44 -28,73 -31,150 -5,108 10,165 78,299 51,101 100,165 179,232 158,134 989,787 1665,1308 l 109,84 546,44 c 300,23 951,74 1446,113 6318,494 6352,497 6498,520 160,25 317,160 362,314 20,66 64,374 115,800 22,186 101,833 175,1437 219,1783 344,2812 365,2999 27,236 26,343 -1,417 -58,154 -201,275 -368,308 -38,7 -181,16 -341,19 -151,4 -444,11 -650,16 -206,6 -841,21 -1410,35 -985,24 -1750,43 -2635,65 -220,5 -677,17 -1015,25 -338,8 -977,24 -1420,35 -443,11 -1372,33 -2065,50 -2048,48 -2105,50 -2228,56 -87,5 -123,11 -138,23 -13,10 -217,515 -573,1416 -643,1628 -673,1702 -721,1760 -38,47 -108,101 -170,133 -62,31 -200,56 -1584,287 -1250,208 -1283,212 -1395,174 z"
       id="path4777"
       inkscape:connector-curvature="0" />
    <path
       inkscape:connector-curvature="0"
       id="path4779"
       d="M 326,16119 C 199,16075 93,15981 35,15858 1,15788 0,15782 0,15664 v -122 l 40,-79 c 66,-133 173,-223 305,-257 73,-19 434,-82 997,-176 1453,-242 1405,-232 1424,-294 4,-12 144,-367 311,-791 168,-423 716,-1809 1218,-3080 502,-1270 1136,-2872 1408,-3560 516,-1304 653,-1653 693,-1769 l 24,-70 -27,-29 c -37,-39 -244,-206 -663,-532 -615,-480 -668,-525 -802,-685 -197,-234 -325,-489 -384,-760 -28,-129 -26,-474 4,-582 28,-103 86,-221 170,-348 170,-257 360,-425 625,-555 l 127,-62 -77,-28 c -155,-55 -260,-120 -374,-234 -193,-193 -289,-423 -289,-690 0,-190 51,-360 154,-515 136,-205 341,-354 573,-418 67,-18 106,-22 268,-22 211,-1 223,1 401,84 214,99 374,258 475,474 65,139 83,228 84,401 0,126 -4,163 -23,235 -29,106 -88,233 -146,313 -52,73 -192,211 -255,253 l -45,29 230,3 c 342,5 7915,-18 7945,-24 26,-5 23,-9 -68,-102 -218,-225 -306,-427 -307,-707 0,-146 21,-252 73,-375 102,-239 326,-450 567,-534 131,-46 225,-59 378,-53 153,5 253,28 380,86 196,89 378,272 471,474 64,139 80,221 80,412 -1,160 -2,175 -29,255 -33,99 -93,221 -146,300 -40,58 -171,189 -221,219 l -29,18 76,7 c 42,3 172,6 288,6 116,1 280,5 363,10 186,10 226,26 324,122 117,115 153,208 147,377 -3,86 -7,103 -38,166 -49,98 -134,182 -235,233 l -81,40 -1769,11 c -974,6 -3163,16 -4865,22 -1702,6 -3291,14 -3530,18 l -435,7 -65,31 c -80,39 -152,109 -187,183 -22,44 -28,73 -31,150 -5,108 10,165 78,299 51,101 100,165 179,232 158,134 989,787 1665,1308 l 109,84 546,44 c 300,23 951,74 1446,113 6318,494 6352,497 6498,520 160,25 317,160 362,314 20,66 64,374 115,800 22,186 101,833 175,1437 219,1783 344,2812 365,2999 27,236 26,343 -1,417 -58,154 -201,275 -368,308 -38,7 -181,16 -341,19 -151,4 -444,11 -650,16 -206,6 -841,21 -1410,35 -985,24 -1750,43 -2635,65 -220,5 -677,17 -1015,25 -338,8 -977,24 -1420,35 -443,11 -1372,33 -2065,50 -2048,48 -2105,50 -2228,56 -87,5 -123,11 -138,23 -13,10 -217,515 -573,1416 -643,1628 -673,1702 -721,1760 -38,47 -108,101 -170,133 -62,31 -200,56 -1584,287 -1250,208 -1283,212 -1395,174 z" />
  </g>
</svg>
