<?xml version="1.0" encoding="UTF-8" standalone="no"?>
<svg
   xmlns:dc="http://purl.org/dc/elements/1.1/"
   xmlns:cc="http://creativecommons.org/ns#"
   xmlns:rdf="http://www.w3.org/1999/02/22-rdf-syntax-ns#"
   xmlns:svg="http://www.w3.org/2000/svg"
   xmlns="http://www.w3.org/2000/svg"
   xmlns:sodipodi="http://sodipodi.sourceforge.net/DTD/sodipodi-0.dtd"
   xmlns:inkscape="http://www.inkscape.org/namespaces/inkscape"
   version="1.0"
   width="17"
   height="17"
   viewBox="0 0 12.749999 12.75"
   preserveAspectRatio="xMidYMid meet"
   id="svg8"
   sodipodi:docname="EDF_Edif_Comerc_Serv_Combustivel_15px_Branco.svg"
   inkscape:version="0.92.3 (2405546, 2018-03-11)">
  <defs
     id="defs12">
    <pattern
       y="0"
       x="0"
       height="6"
       width="6"
       patternUnits="userSpaceOnUse"
       id="EMFhbasepattern" />
    <pattern
       y="0"
       x="0"
       height="6"
       width="6"
       patternUnits="userSpaceOnUse"
       id="EMFhbasepattern-2" />
    <pattern
       y="0"
       x="0"
       height="6"
       width="6"
       patternUnits="userSpaceOnUse"
       id="EMFhbasepattern-5" />
  </defs>
  <sodipodi:namedview
     pagecolor="#ffffff"
     bordercolor="#666666"
     borderopacity="1"
     objecttolerance="10"
     gridtolerance="10"
     guidetolerance="10"
     inkscape:pageopacity="0"
     inkscape:pageshadow="2"
     inkscape:window-width="1366"
     inkscape:window-height="705"
     id="namedview10"
     showgrid="false"
     units="px"
     inkscape:zoom="37.606131"
     inkscape:cx="7.7660174"
     inkscape:cy="8.2831127"
     inkscape:window-x="-8"
     inkscape:window-y="-8"
     inkscape:window-maximized="1"
     inkscape:current-layer="svg8"
     inkscape:pagecheckerboard="true" />
  <metadata
     id="metadata2">
Created by potrace 1.15, written by Peter Selinger 2001-2017
<rdf:RDF>
  <cc:Work
     rdf:about="">
    <dc:format>image/svg+xml</dc:format>
    <dc:type
       rdf:resource="http://purl.org/dc/dcmitype/StillImage" />
    <dc:title></dc:title>
  </cc:Work>
</rdf:RDF>
</metadata>
  <text
     id="text4883"
     y="-33.852551"
     x="-209.65199"
     style="font-style:normal;font-variant:normal;font-weight:400;font-size:11.0625px;line-height:203.92160416%;font-family:Calibri;text-align:start;letter-spacing:0px;word-spacing:0px;text-anchor:start;fill:#000000;fill-opacity:1;stroke:none;stroke-width:0.75"
     xml:space="preserve"><tspan
       id="tspan4877"
       y="-33.852551"
       x="-209.65199"
       sodipodi:role="line"
       style="stroke-width:0.75"><tspan
         id="tspan4875"
         style="font-style:normal;font-variant:normal;font-weight:400;font-size:11.0625px;font-family:Calibri;fill:#000000;stroke-width:0.75"
         dy="0"
         dx="0"> </tspan></tspan><tspan
       id="tspan4881"
       y="-11.293723"
       x="-209.65199"
       sodipodi:role="line"
       style="stroke-width:0.75"><tspan
         id="tspan4879"
         style="font-style:normal;font-variant:normal;font-weight:400;font-size:11.0625px;font-family:Calibri;fill:#000000;stroke-width:0.75"
         dy="0"
         dx="0">Você aceita participar da pesquisa do teste de percepção cartográfica, realizada pela aluna </tspan></tspan></text>
  <g
     inkscape:transform-center-y="1.3550732"
     inkscape:transform-center-x="-0.064393711"
     transform="matrix(0.00581641,0,0,-0.00595631,1.1566807,12.850691)"
     id="g4983"
     style="fill:#808080;stroke:#0000f7;stroke-width:0.99585664;stroke-miterlimit:4;stroke-dasharray:none;stroke-opacity:1">
    <path
       d="m 65.62625,2078.4971 c -19,-19 -20,-106.1214 -20,-456.1214 0,-392 -19.772303,-422.5808 31.178978,-424.7571 55.429762,-2.3676 41.485952,-9.3676 52.273672,-34.9409 3.54258,-169.98419 7.67007,-307.55392 6.51795,-478.80421 C 133.00673,298.8808 166.93241,107.90596 176.93241,88.905964 L 244.74343,40.993011 775.63066,30.065355 c 432.99994,-2 550.00164,-13.642357 565.91604,38.918316 9,13 21.5432,173.111719 21.5432,498.111719 0,307 3,429 11,437.00001 13,13 -66.0899,39.9046 -49.0899,23.9046 6,-5 12,-159 15,-401 l 5,-392 26.1712,-151.713824 c 18,-28 37,-52 43,-52 64.457,-14.814546 145.5608,-20.18596 195.575,-19.955078 191.0047,15.067382 234.1985,-12.28819863 279.1985,47.711801 l 57.4019,176.893511 -1,245 c -1,404 -47,939.99999 -100,1165.99999 -35,146 -98,231 -189,254 -77,19 -195.8101,2.1351 -243.3195,-65.6879 -22.0833,-31.5255 -15.1442,-86 11.8558,-114 -40.5778,-75.1572 34.999,-157.3818 81,-379 50,-468.99996 80.1442,-623.99996 81.1442,-793.99996 1,-152 -1,-169 -18,-188 -29,-32 60.6619,-22.34393 32.6619,15.65607 -20,27 -21,37 -18,325 2,180 -36.2297,402.08959 -43.2297,435.08959 -19.7483,130.7207 -2.9896,49.981 -76.1127,108.3497 15,17 -2.4249,196.1817 -12.0947,309.2365 -5.5678,65.0966 28.0947,516.8849 9.0947,535.8849 -20,20 -33,20 -599.99996,20 -567,0 -775.72039,-10.9682 -795.72039,-30.9682 z M 1145.9943,1770.7194 c 17,-17 6.7135,-354.888 -10.2865,-371.888 -17,-17 -757.27136,-10.3034 -774.27136,6.6966 -17,17 -20.42884,338.1465 -3.42884,355.1465 17,17 770.9867,27.0449 787.9867,10.0449 z"
       id="path4981"
       inkscape:connector-curvature="0"
       style="fill:#ffffff;stroke:#0000f7;stroke-width:0;stroke-miterlimit:4;stroke-dasharray:none;stroke-opacity:1"
       sodipodi:nodetypes="sssccccccsscccccccccccaccccccccsssssssss" />
  </g>
  <g
     style="fill:#000000;stroke:#0000f7;stroke-width:0.99585664;stroke-miterlimit:4;stroke-dasharray:none;stroke-opacity:1"
     id="g5148"
     transform="matrix(0.00565883,0,0,-0.0058064,1.3686268,12.815462)"
     inkscape:transform-center-x="-0.062656022"
     inkscape:transform-center-y="1.3209677">
    <path
       style="fill:#000000;stroke:#0000f7;stroke-width:0.99585664;stroke-miterlimit:4;stroke-dasharray:none;stroke-opacity:1"
       inkscape:connector-curvature="0"
       id="path5146"
       d="m 140,2020 c -19,-19 -20,-33 -20,-383 0,-392 2,-407 53,-407 13,0 33,-7 45,-16 l 22,-15 V 697 c 0,-385 3,-508 13,-527 l 13,-25 469,-3 c 433,-2 471,-1 483,15 9,13 12,118 12,443 0,307 3,429 11,437 13,13 67,7 84,-9 6,-5 12,-159 15,-401 l 5,-392 34,-53 c 18,-28 37,-52 43,-52 5,0 16,-7 24,-15 12,-12 41,-15 127,-15 131,0 178,16 223,76 l 29,38 -1,245 c -1,404 -47,940 -100,1166 -35,146 -98,231 -189,254 -77,19 -75,21 -75,-73 0,-80 2,-86 29,-114 40,-40 47,-72 81,-379 50,-469 63,-624 64,-794 1,-152 -1,-169 -18,-188 -29,-32 -92,-26 -120,12 -20,27 -21,37 -18,325 2,180 -1,318 -8,351 -18,97 -92,160 -187,161 -24,0 -43,4 -43,9 0,15 42,41 66,41 11,0 28,8 37,18 15,17 17,58 17,385 0,354 -1,368 -20,387 -20,20 -33,20 -600,20 -567,0 -580,0 -600,-20 z m 1078,-112 c 17,-17 17,-529 0,-546 -17,-17 -939,-17 -956,0 -17,17 -17,529 0,546 17,17 939,17 956,0 z"
       sodipodi:nodetypes="sssccsccccssccccssscccccsccccccccsscsssssssss" />
  </g>
</svg>
