<?xml version="1.0" encoding="UTF-8" standalone="no"?>
<svg
   xmlns:dc="http://purl.org/dc/elements/1.1/"
   xmlns:cc="http://creativecommons.org/ns#"
   xmlns:rdf="http://www.w3.org/1999/02/22-rdf-syntax-ns#"
   xmlns:svg="http://www.w3.org/2000/svg"
   xmlns="http://www.w3.org/2000/svg"
   xmlns:sodipodi="http://sodipodi.sourceforge.net/DTD/sodipodi-0.dtd"
   xmlns:inkscape="http://www.inkscape.org/namespaces/inkscape"
   width="15"
   height="15"
   viewBox="0 0 3.9687499 3.9687501"
   version="1.1"
   id="svg861"
   inkscape:version="1.0.1 (3bc2e813f5, 2020-09-07)"
   sodipodi:docname="teatro.svg">
  <defs
     id="defs855" />
  <sodipodi:namedview
     id="base"
     pagecolor="#ffffff"
     bordercolor="#666666"
     borderopacity="1.0"
     inkscape:pageopacity="0.0"
     inkscape:pageshadow="2"
     inkscape:zoom="31.678384"
     inkscape:cx="8.8162585"
     inkscape:cy="7.6434631"
     inkscape:document-units="mm"
     inkscape:current-layer="layer1"
     inkscape:document-rotation="0"
     showgrid="false"
     units="px"
     inkscape:pagecheckerboard="false"
     inkscape:window-width="1366"
     inkscape:window-height="705"
     inkscape:window-x="-8"
     inkscape:window-y="-8"
     inkscape:window-maximized="1" />
  <metadata
     id="metadata858">
    <rdf:RDF>
      <cc:Work
         rdf:about="">
        <dc:format>image/svg+xml</dc:format>
        <dc:type
           rdf:resource="http://purl.org/dc/dcmitype/StillImage" />
        <dc:title></dc:title>
      </cc:Work>
    </rdf:RDF>
  </metadata>
  <g
     inkscape:label="Layer 1"
     inkscape:groupmode="layer"
     id="layer1">
    <path
       style="fill:#000000;stroke:#ffffff;stroke-width:0.08;stroke-miterlimit:4;stroke-dasharray:none;stroke-opacity:1"
       d="M 1.0110685,3.9129519 C 0.78750745,3.7629854 0.55830877,3.4199706 0.43199715,3.0463239 0.31244032,2.6926584 0.2435271,2.2144582 0.24328635,1.7368256 l -4.939e-5,-0.098027 0.0600592,-0.062359 C 0.40348638,1.4724166 0.54672679,1.3902289 0.71158725,1.3421754 0.9741177,1.2656532 1.3563378,1.2602135 1.6474014,1.3288533 l 0.085483,0.020161 0.067299,0.1332347 c 0.1192734,0.2361311 0.2626098,0.4445298 0.4173685,0.6068155 l 0.076727,0.08046 -0.027016,0.1077774 C 2.0912135,2.8878703 1.7466616,3.6196961 1.2104236,3.8954048 c -0.053641,0.026214 -0.1066262,0.050151 -0.1177483,0.053193 -0.013963,0.00381 -0.03922,-0.00722 -0.081607,-0.035646 z M 1.7625804,2.8556739 C 1.7276736,2.7876201 1.6467288,2.68092 1.579827,2.6147724 1.3866339,2.4237559 1.1505289,2.3805964 0.91594722,2.4934165 c -0.056908,0.027368 -0.0902053,0.053068 -0.15863364,0.1224303 -0.0476336,0.048284 -0.0990802,0.1112347 -0.11432534,0.1398885 -0.0298464,0.0561 -0.028438,0.055986 0.0533666,-0.00429 C 0.90646842,2.5966016 1.1981083,2.5387077 1.3853267,2.6146719 c 0.1163497,0.047209 0.2749561,0.1557884 0.3611932,0.2472665 0.015522,0.016467 0.029665,0.02994 0.031426,0.02994 0.00176,0 -0.00515,-0.01629 -0.015366,-0.036199 z M 0.68848114,1.9813838 c 0.11832425,-0.058745 0.2069287,-0.1517913 0.17794775,-0.1868695 -0.0439565,-0.053205 -0.29863406,0.072193 -0.35024702,0.1724546 -0.0347626,0.067528 0.0508833,0.074695 0.17229927,0.014415 z M 1.8100339,1.9651698 c 0.00995,0 0.022935,-0.00908 0.028849,-0.020185 0.00941,-0.017652 0.0054,-0.02534 -0.031939,-0.061277 -0.074201,-0.071419 -0.2470827,-0.1282616 -0.3280287,-0.107853 -0.062103,0.015657 -0.00731,0.089746 0.1056498,0.1428436 0.061444,0.028884 0.1721563,0.057634 0.1945762,0.050528 0.00703,-0.00224 0.020941,-0.00407 0.030893,-0.00407 z M 2.6243937,2.3477724 C 2.1426292,2.0719798 1.7713294,1.4971478 1.591802,0.74915414 1.556066,0.60026142 1.5078625,0.32703748 1.4965715,0.20937585 l -0.00684,-0.0713179 0.032604,0.005886 c 0.070858,0.0128008 0.3875896,0.0450153 0.5467119,0.0555961 0.3706183,0.0246438 1.0215187,-0.0118953 1.3261106,-0.0744515 0.1022302,-0.0209944 0.2086519,-0.0578132 0.2618556,-0.09059309 l 0.045648,-0.02812351 v 0.0235531 c 0,0.04536925 -0.048537,0.3873691 -0.076877,0.54169345 C 3.5464835,1.0034387 3.4387831,1.3528059 3.2890585,1.6639197 3.1757863,1.8992884 3.0797249,2.0500839 2.94428,2.2051449 2.8780281,2.2809912 2.7445293,2.3899092 2.7178168,2.3899092 c -0.010902,0 -0.05294,-0.018961 -0.093423,-0.042137 z M 2.7640009,1.8075353 C 2.8690711,1.7805395 2.9436523,1.7370895 3.0365693,1.6487368 3.1163445,1.5728799 3.1732816,1.5005453 3.2270892,1.4066922 l 0.027673,-0.048265 -0.081557,0.07282 C 2.9766734,1.6067251 2.8283423,1.6762585 2.6544142,1.6744469 2.4964396,1.6728015 2.3358341,1.618139 2.178497,1.5124672 2.128423,1.4788372 2.087453,1.4535492 2.087453,1.4562752 c 0,0.00273 0.018799,0.033952 0.041774,0.069392 0.1513642,0.2334763 0.3975812,0.3428081 0.6347739,0.2818681 z M 2.3144189,1.0263598 c 0.070312,-0.00496 0.1389973,-0.0899944 0.1377128,-0.16046922 -0.00153,-0.0840588 -0.087055,-0.18623802 -0.1711223,-0.18528693 -0.079245,8.9654e-4 -0.1623467,0.0991729 -0.1573135,0.17826305 0.00537,0.0844389 0.1063233,0.1734501 0.190723,0.1674931 z m 0.9551752,-0.0487426 c 0.064996,-0.0380948 0.085298,-0.15900374 0.04362,-0.22176281 -0.036767,-0.0553642 -0.1381744,-0.0744858 -0.1952409,-0.0404211 -0.057841,0.0345267 -0.089082,0.13394335 -0.057851,0.19362791 0.034062,0.0650951 0.1460881,0.10570577 0.2094718,0.068556 z"
       id="path1447"
       sodipodi:nodetypes="cssccsccscccccccccsccscsccsssscccccccccscccscccscsssccsccsscsccaaaaaaaaaa" />
  </g>
</svg>
