<?xml version="1.0" encoding="UTF-8" standalone="no"?>
<svg
   xmlns:dc="http://purl.org/dc/elements/1.1/"
   xmlns:cc="http://creativecommons.org/ns#"
   xmlns:rdf="http://www.w3.org/1999/02/22-rdf-syntax-ns#"
   xmlns:svg="http://www.w3.org/2000/svg"
   xmlns="http://www.w3.org/2000/svg"
   xmlns:sodipodi="http://sodipodi.sourceforge.net/DTD/sodipodi-0.dtd"
   xmlns:inkscape="http://www.inkscape.org/namespaces/inkscape"
   width="16"
   height="16"
   viewBox="0 0 4.2333333 4.2333334"
   version="1.1"
   id="svg914"
   inkscape:version="1.0.1 (3bc2e813f5, 2020-09-07)"
   sodipodi:docname="cinema_modelo3.svg">
  <defs
     id="defs908">
    <pattern
       id="EMFhbasepattern"
       patternUnits="userSpaceOnUse"
       width="6"
       height="6"
       x="0"
       y="0" />
  </defs>
  <sodipodi:namedview
     id="base"
     pagecolor="#ffffff"
     bordercolor="#666666"
     borderopacity="1.0"
     inkscape:pageopacity="0.0"
     inkscape:pageshadow="2"
     inkscape:zoom="24.01"
     inkscape:cx="6.7614534"
     inkscape:cy="6.7826627"
     inkscape:document-units="mm"
     inkscape:current-layer="layer1"
     inkscape:document-rotation="0"
     showgrid="false"
     units="px"
     inkscape:pagecheckerboard="false"
     inkscape:window-width="1366"
     inkscape:window-height="705"
     inkscape:window-x="-8"
     inkscape:window-y="-8"
     inkscape:window-maximized="1" />
  <metadata
     id="metadata911">
    <rdf:RDF>
      <cc:Work
         rdf:about="">
        <dc:format>image/svg+xml</dc:format>
        <dc:type
           rdf:resource="http://purl.org/dc/dcmitype/StillImage" />
        <dc:title></dc:title>
      </cc:Work>
    </rdf:RDF>
  </metadata>
  <g
     inkscape:label="Layer 1"
     inkscape:groupmode="layer"
     id="layer1">
    <path
       style="fill:#000000;stroke:#ffffff;stroke-width:0.09;stroke-miterlimit:4;stroke-dasharray:none;stroke-opacity:1"
       d="m 0.54211415,3.6532109 c -0.067222,-0.029609 -0.1241967,-0.095581 -0.1520949,-0.1761161 -0.0245824,-0.070962 -0.0254069,-1.2766734 -9.269e-4,-1.347607 0.02547,-0.073793 0.082277,-0.1402019 0.147554,-0.172503 0.056658,-0.028036 0.089486,-0.028838 1.18067115,-0.028838 h 1.1223926 l 0.058172,0.031712 c 0.055464,0.030236 0.086594,0.064165 0.1285859,0.1401518 0.014497,0.026233 0.018927,0.1909849 0.018927,0.7039552 0,0.7193817 0.00147,0.7045164 -0.07798,0.7907778 C 2.885021,3.6842056 2.932482,3.6809546 1.7139559,3.6806056 0.66176045,3.6803045 0.60036115,3.6788694 0.54210975,3.6532107 Z M 3.9265423,3.5369668 C 3.9060073,3.5308568 3.8196945,3.4857948 3.7347362,3.436812 3.6497782,3.387829 3.5773983,3.347752 3.5738922,3.347752 c -0.00351,0 -0.031443,-0.015317 -0.062083,-0.034038 C 3.48117,3.2949921 3.4090572,3.2549335 3.3515589,3.2246941 3.2940605,3.1944548 3.2386157,3.1633435 3.2283481,3.1555583 3.2143611,3.1449529 3.2096799,3.0563974 3.2096799,2.8024052 V 2.4634068 l 0.069144,-0.039479 c 0.038029,-0.021713 0.1224872,-0.070442 0.1876847,-0.1082865 0.065198,-0.037843 0.1208252,-0.068808 0.1236171,-0.068808 0.00279,0 0.073452,-0.039381 0.1570235,-0.087511 0.2089816,-0.1203598 0.2893561,-0.1307364 0.3359353,-0.043369 0.033817,0.063431 0.033925,1.2990497 1.195e-4,1.3624608 -0.035159,0.065943 -0.077958,0.08194 -0.156659,0.058554 z M 0.81267125,1.8464759 C 0.59304515,1.8130868 0.38331425,1.6523352 0.27664655,1.4356313 0.21623895,1.3129085 0.21603795,1.311924 0.21566275,1.1372718 c -2.073e-4,-0.096377 0.00683,-0.19089632 0.01564,-0.21004353 0.1281836,-0.27857063 0.258671,-0.40267803 0.5111981,-0.48620348 0.085765,-0.0283671 0.31424285,-0.0318817 0.39873025,-0.006138 0.2596992,0.079147 0.4362945,0.24615223 0.5220905,0.49373768 0.028835,0.0832118 0.0299,0.31740663 0.00185,0.40704153 -0.06973,0.2228312 -0.237753,0.3977159 -0.4594946,0.4782587 -0.079261,0.02879 -0.29836605,0.046934 -0.39300885,0.032546 z M 1.0877038,1.3631455 c 0.024387,-0.015993 0.059024,-0.053132 0.076972,-0.082531 0.026558,-0.043503 0.032631,-0.065973 0.032631,-0.1207202 0,-0.075321 -0.018165,-0.1215403 -0.070372,-0.17906198 -0.045312,-0.049924 -0.095418,-0.0709212 -0.16924007,-0.0709212 -0.12222021,0 -0.21794869,0.0901642 -0.23265154,0.21912877 -0.0227878,0.199882 0.19775654,0.3422481 0.36266071,0.2341052 z m 1.225898,0.4776333 C 2.193551,1.8163141 2.0582507,1.7406897 1.9536351,1.6395802 1.6562837,1.3521943 1.6595143,0.90880685 1.961063,0.62014956 2.1076098,0.47986746 2.263312,0.4179444 2.4704157,0.41757894 c 0.198013,-3.4948e-4 0.3349603,0.0466587 0.4886077,0.1677197 0.072565,0.0571746 0.2058527,0.23563402 0.2058527,0.2756168 0,0.0124011 0.00602,0.0261551 0.013376,0.0305654 0.00736,0.004416 0.021833,0.0631612 0.032172,0.13055936 C 3.2649361,1.3774309 3.066761,1.6973779 2.716838,1.8189191 2.635432,1.8471943 2.4060924,1.8596277 2.3136024,1.8407797 Z M 2.5345241,1.3282807 c 0.047308,-0.013424 0.1116849,-0.070533 0.1342277,-0.1190763 0.00984,-0.021186 0.016452,-0.062776 0.016452,-0.1034582 0,-0.059417 -0.00423,-0.074414 -0.03336,-0.11844795 C 2.5498911,0.83321798 2.3193014,0.86515087 2.2604995,1.0414929 c -0.00918,0.027519 -0.016684,0.059265 -0.016684,0.070549 0,0.045649 0.026768,0.1066021 0.066139,0.150606 0.061253,0.06846 0.1367966,0.090538 0.2245692,0.065633 z"
       id="path1499"
       sodipodi:nodetypes="cscsscssscsccssscssscscscscsscsccccccsccscssssscsssssccsccssscssss" />
  </g>
</svg>
