<?xml version="1.0" encoding="UTF-8" standalone="no"?>
<svg
   xmlns:dc="http://purl.org/dc/elements/1.1/"
   xmlns:cc="http://creativecommons.org/ns#"
   xmlns:rdf="http://www.w3.org/1999/02/22-rdf-syntax-ns#"
   xmlns:svg="http://www.w3.org/2000/svg"
   xmlns="http://www.w3.org/2000/svg"
   xmlns:sodipodi="http://sodipodi.sourceforge.net/DTD/sodipodi-0.dtd"
   xmlns:inkscape="http://www.inkscape.org/namespaces/inkscape"
   width="15"
   height="15"
   viewBox="0 0 3.9687499 3.9687501"
   version="1.1"
   id="svg861"
   inkscape:version="1.0.1 (3bc2e813f5, 2020-09-07)"
   sodipodi:docname="espaço cultural_MODELO 2.svg">
  <defs
     id="defs855" />
  <sodipodi:namedview
     id="base"
     pagecolor="#ffffff"
     bordercolor="#666666"
     borderopacity="1.0"
     inkscape:pageopacity="0.0"
     inkscape:pageshadow="2"
     inkscape:zoom="27.58"
     inkscape:cx="6.2348401"
     inkscape:cy="8.1031897"
     inkscape:document-units="mm"
     inkscape:current-layer="layer1"
     inkscape:document-rotation="0"
     showgrid="false"
     units="px"
     inkscape:pagecheckerboard="false"
     inkscape:window-width="1366"
     inkscape:window-height="705"
     inkscape:window-x="-8"
     inkscape:window-y="-8"
     inkscape:window-maximized="1"
     inkscape:snap-global="false" />
  <metadata
     id="metadata858">
    <rdf:RDF>
      <cc:Work
         rdf:about="">
        <dc:format>image/svg+xml</dc:format>
        <dc:type
           rdf:resource="http://purl.org/dc/dcmitype/StillImage" />
        <dc:title></dc:title>
      </cc:Work>
    </rdf:RDF>
  </metadata>
  <g
     inkscape:label="Layer 1"
     inkscape:groupmode="layer"
     id="layer1">
    <path
       style="fill:#000000;stroke:#ffffff;stroke-width:0.08;stroke-miterlimit:4;stroke-dasharray:none;stroke-opacity:1"
       d="M 0.80705492,3.8702498 C 0.58349388,3.7202833 0.3542952,3.3772685 0.22798358,3.0036218 0.10842675,2.6499563 0.03951353,2.1717561 0.03927278,1.6941235 l -4.939e-5,-0.098027 0.0600592,-0.062359 C 0.19947281,1.4297145 0.34271322,1.3475268 0.50757368,1.2994733 0.77010412,1.2229511 1.1523242,1.2175114 1.4433878,1.2861512 l 0.085483,0.020161 0.067299,0.1332347 C 1.7154432,1.675678 1.8587796,1.8840767 2.0135383,2.0463624 l 0.076727,0.08046 -0.027016,0.1077774 C 1.8871999,2.8451682 1.542648,3.576994 1.00641,3.8527027 c -0.053641,0.026214 -0.10662618,0.050151 -0.11774828,0.053193 -0.013963,0.00381 -0.03922,-0.00722 -0.0816068,-0.035646 z M 1.5585668,2.9847883 C 1.52366,2.884457 1.4427152,2.7271497 1.3758134,2.6296287 1.1826203,2.3480142 0.94651532,2.2843844 0.71193362,2.4507144 c -0.056908,0.040349 -0.0902053,0.078238 -0.15863361,0.1804983 -0.0476336,0.071185 -0.0990802,0.1639926 -0.11432534,0.2062367 -0.0298464,0.082708 -0.028438,0.08254 0.0533666,-0.00632 0.21011355,-0.2282851 0.46631818,-0.254579 0.65353653,-0.1425854 0.1163497,0.0696 0.3103914,0.1706191 0.3966285,0.3054847 0.015522,0.024277 0.029665,0.04414 0.031426,0.04414 0.00176,0 -0.00515,-0.024016 -0.015366,-0.053368 z M 0.50809108,2.068611 C 0.62641533,2.009866 0.750455,1.8695727 0.7214741,1.8344945 0.6775176,1.7812895 0.36378126,1.8240052 0.3121683,1.9242668 0.2774057,1.9917948 0.38667511,2.1288911 0.50809108,2.068611 Z m 1.14517622,-0.0044 c 0.00995,0 0.022935,-0.00908 0.028849,-0.020185 0.00941,-0.017652 0.0054,-0.02534 -0.031939,-0.061277 C 1.5759763,1.91133 1.4739652,1.7599933 1.3930192,1.7804019 c -0.062103,0.015657 -0.1844864,0.136993 -0.071527,0.1900906 0.061444,0.028884 0.2784621,0.1048811 0.300882,0.097775 0.00703,-0.00224 0.020941,-0.00407 0.030893,-0.00407 z M 2.4203801,2.3050703 C 1.9386156,2.0292777 1.5673158,1.4544457 1.3877884,0.706452 1.3520524,0.55755928 1.3038489,0.28433534 1.2925579,0.16667371 l -0.00684,-0.0713179 0.032604,0.005886 c 0.070858,0.0128008 0.3875896,0.0450153 0.5467119,0.0555961 0.3706183,0.0246438 1.0215187,-0.0118953 1.3261106,-0.0744515 C 3.2933746,0.06139201 3.3997963,0.02457321 3.453,-0.00820669 l 0.045648,-0.0281235 v 0.0235531 c 0,0.0453693 -0.048537,0.3873691 -0.076877,0.54169345 C 3.3424699,0.96073657 3.2347695,1.3101038 3.0850449,1.6212176 2.9717727,1.8565863 2.8757113,2.0073818 2.7402664,2.1624428 2.6740145,2.2382891 2.5405157,2.3472071 2.5138032,2.3472071 c -0.010902,0 -0.05294,-0.018961 -0.093423,-0.042137 z M 2.5599873,1.7648332 C 2.6650575,1.7293174 2.7396387,1.6721543 2.8325557,1.555917 2.9123309,1.4561192 2.969268,1.3609554 3.0230756,1.2374817 l 0.027673,-0.063498 -0.081557,0.095802 C 2.7726598,1.5006461 2.6125169,1.5448777 2.4385888,1.5424943 2.2806142,1.5403296 2.1318205,1.5156624 1.9744834,1.3766399 c -0.050074,-0.044244 -0.091044,-0.077513 -0.091044,-0.073927 0,0.00359 0.018799,0.044668 0.041774,0.091293 0.1513642,0.3071628 0.3975812,0.4510003 0.6347739,0.3708273 z M 2.0631583,0.96003417 c 0.090219,0.008405 0.2028706,-0.0853768 0.2072612,-0.1758801 C 2.2749095,0.69166137 2.1694179,0.59050894 2.0769958,0.58474861 1.9947838,0.57962461 1.8930169,0.65748491 1.884247,0.73938815 1.874166,0.83353885 1.968878,0.95125037 2.0631583,0.96003417 Z M 3.041957,0.90538567 C 3.1134965,0.88430217 3.1749358,0.78540597 3.1564476,0.71315222 3.1354547,0.63110974 3.0171862,0.555246 2.9375832,0.58414291 c -0.076177,0.0276531 -0.1118584,0.15393416 -0.081475,0.22906326 0.025926,0.064107 0.1195179,0.1117278 0.1858488,0.0921795 z"
       id="path1447"
       sodipodi:nodetypes="cssccsccscccccccccsccscsccsssscccccccccscccscccscsssccsccsscsccaaaaaaaaaa" />
    <path
       style="fill:#000000;stroke:#ffffff;stroke-width:0.112334;stroke-miterlimit:4;stroke-dasharray:none;stroke-opacity:1"
       d="M 2.254737,3.993311 C 2.1274075,3.946082 1.9683909,3.8184364 1.9568352,3.7383176 1.948136,3.6780003 1.9531027,3.5436103 2.0004243,3.5001081 2.1204884,3.3897741 2.3688079,3.3359327 2.5630993,3.3781056 l 0.063717,0.013826 0.1555173,-0.733175 C 2.9365509,1.9316402 2.9381024,1.9253898 2.9691397,1.9024319 c 0.034129,-0.025238 0.1657775,0.00686 0.2273655,0.00484 0.0362,-0.00119 0.039913,0.00116 0.041305,0.026313 0.0022,0.039999 0.1250434,0.1566362 0.349244,0.3316505 0.1052105,0.082128 0.2173477,0.1795457 0.2491931,0.2164814 0.097599,0.1131999 0.071198,0.5129164 0.074576,0.5900084 0.00339,0.077091 -0.012568,0.060591 -0.012568,0.060591 L 3.8341449,3.0294317 C 3.68283,2.7865534 3.4523567,2.595237 3.2497218,2.5443005 L 3.1992577,2.5316176 3.0894723,3.0440832 2.9371711,3.7614828 2.891994,3.8099063 C 2.7691844,3.9415347 2.4708645,4.0734772 2.254745,3.9933141 Z"
       id="path862"
       sodipodi:nodetypes="sscccccccsszcccccccss" />
  </g>
</svg>
