<?xml version="1.0" encoding="UTF-8" standalone="no"?>
<svg
   xmlns:dc="http://purl.org/dc/elements/1.1/"
   xmlns:cc="http://creativecommons.org/ns#"
   xmlns:rdf="http://www.w3.org/1999/02/22-rdf-syntax-ns#"
   xmlns:svg="http://www.w3.org/2000/svg"
   xmlns="http://www.w3.org/2000/svg"
   xmlns:sodipodi="http://sodipodi.sourceforge.net/DTD/sodipodi-0.dtd"
   xmlns:inkscape="http://www.inkscape.org/namespaces/inkscape"
   width="16"
   height="16"
   viewBox="0 0 4.2333333 4.2333333"
   version="1.1"
   id="svg8"
   inkscape:version="1.0.1 (3bc2e813f5, 2020-09-07)"
   sodipodi:docname="plataforma de pesca.svg">
  <defs
     id="defs2" />
  <sodipodi:namedview
     id="base"
     pagecolor="#ffffff"
     bordercolor="#666666"
     borderopacity="1.0"
     inkscape:pageopacity="0.0"
     inkscape:pageshadow="2"
     inkscape:zoom="25.98"
     inkscape:cx="6.3420091"
     inkscape:cy="7.5547065"
     inkscape:document-units="mm"
     inkscape:current-layer="layer1"
     inkscape:document-rotation="0"
     showgrid="false"
     inkscape:window-width="1366"
     inkscape:window-height="705"
     inkscape:window-x="-8"
     inkscape:window-y="-8"
     inkscape:window-maximized="1"
     units="px"
     inkscape:pagecheckerboard="false"
     inkscape:snap-global="false" />
  <metadata
     id="metadata5">
    <rdf:RDF>
      <cc:Work
         rdf:about="">
        <dc:format>image/svg+xml</dc:format>
        <dc:type
           rdf:resource="http://purl.org/dc/dcmitype/StillImage" />
        <dc:title></dc:title>
      </cc:Work>
    </rdf:RDF>
  </metadata>
  <g
     inkscape:label="Layer 1"
     inkscape:groupmode="layer"
     id="layer1">
    <path
       style="fill:#000000;stroke:#ffffff;stroke-width:0.05;stroke-miterlimit:4;stroke-dasharray:none;stroke-opacity:1"
       d="M 2.5158624,4.0343756 C 2.5010175,4.031433 2.4597293,4.0231133 2.4241071,4.0158477 2.3349603,3.9978187 2.2345799,3.9405858 2.1876486,3.8810497 L 2.1483839,3.8312282 2.1481236,3.6224891 2.1478627,3.4137502 2.1687108,3.4588956 C 2.2333765,3.5989396 2.4179737,3.6761877 2.6583387,3.6637902 2.8626189,3.6532369 2.99405,3.5835064 3.0584119,3.45799 l 0.031986,-0.062377 0.03274,0.062013 c 0.067641,0.1281129 0.1977415,0.1936308 0.4018305,0.2023637 0.2484489,0.010553 0.4359597,-0.074031 0.4933825,-0.2227695 l 0.019565,-0.050671 v 0 c 0,0 0.1297823,-0.2175381 0.00278,0.4276686 L 4.0003373,3.868265 C 3.9375194,3.9523828 3.8592745,3.9875273 3.7616709,4.0126373 3.6685207,4.036605 3.4434283,4.0346642 3.3593745,4.009173 3.2593484,3.9788505 3.1764682,3.9280419 3.1315515,3.8695448 l -0.0397,-0.051709 -0.038763,0.051916 c -0.043207,0.057856 -0.12623,0.1102578 -0.2209669,0.1394903 -0.062667,0.019326 -0.2651342,0.035413 -0.316283,0.025126 z M 2.4761086,3.4683842 C 2.3416899,3.4456294 2.2454656,3.3960504 2.1837492,3.3177251 L 2.1464067,3.2703454 2.1457329,3.061608 c -6.304e-4,-0.1966706 3.003e-4,-0.2065811 0.016253,-0.1714222 0.060623,0.1336538 0.2395429,0.2202185 0.4530803,0.219228 0.220029,-0.00103 0.3839681,-0.082222 0.4473324,-0.2215952 l 0.025409,-0.055882 0.030164,0.060454 c 0.068604,0.137515 0.2284795,0.213761 0.4463391,0.2128604 0.2238754,-8.744e-4 0.4183162,-0.1045946 0.4602361,-0.2453699 0,0 -0.00172,-0.038803 0.011014,-0.036989 0.1418523,0.020205 0.019331,0.2888104 0.00277,0.4298429 L 4.0035558,3.300981 C 3.9304616,3.4023902 3.8016981,3.4585672 3.6141254,3.4709315 3.4083567,3.484439 3.2370986,3.4306345 3.1447033,3.3233377 l -0.054492,-0.063276 -0.054139,0.063796 c -0.037377,0.044038 -0.074013,0.072593 -0.1183322,0.092178 -0.1259172,0.055673 -0.300057,0.076317 -0.4416545,0.052349 z M 0.80609403,4.0543383 c -0.0151826,-0.00123 -0.0462708,-0.01412 -0.0690975,-0.028363 -0.0361892,-0.022595 -0.0415152,-0.034361 -0.0416031,-0.09189 -5.915e-5,-0.039751 0.0628885,-0.3347285 0.15845432,-0.7424798 0.0872045,-0.3720851 0.007325,-0.4722547 4.7992e-4,-0.4742884 C 0.83646373,2.5552272 0.80867058,2.3920499 0.71545057,2.272751 L 0.67659584,2.1378369 C 0.58716231,1.8272672 0.4267423,1.197399 0.42654174,1.1560274 0.42623962,1.0937468 0.47145896,1.0132718 0.53693888,0.95952899 0.58188942,0.92264649 0.65821286,0.84195423 0.72902291,0.81464023 c 0.0795557,-0.030717 0.15754419,-0.00924 0.28200579,-0.006838 0.075118,0.001457 0.2283398,0.12190887 0.3402441,0.16332036 L 1.5547353,1.046412 1.8855842,1.044872 2.1052359,1.0327698 2.1625189,0.93845093 C 2.3672729,0.6012512 2.9162062,0.26510361 3.3376557,0.15603339 3.5906986,0.09054924 3.7072112,0.07439688 3.7074636,0.10478883 c 1.136e-4,0.0136511 0.02438,0.1682021 -0.1043574,0.19155598 -0.2075144,0.0376381 -0.3589021,0.10682665 -0.6112638,0.2066607 -0.163999,0.0648792 -0.5102038,0.30609732 -0.5935097,0.44100586 l -0.089053,0.12528613 0.020368,0.026149 c 0.036678,0.093222 -0.027979,0.2339485 -0.1103302,0.251606 -0.01909,0.00402 -0.017235,0.00196 -0.026107,0.00502 -0.017528,0.00613 -0.038247,0.1406764 -0.070482,0.2592575 v 0 l 0.00587,0.011683 c 0.023304,0.041942 0.047445,0.1120253 0.030711,0.151259 -0.00495,0.011621 -0.029251,0.094198 -0.050581,0.1049208 l -0.014601,0.0088 0.00358,0.2081305 c 0,0 0.048033,0.3674847 -0.00889,0.4099645 C 2.0318977,2.5485632 1.9865969,2.5053318 1.9865969,2.5053318 1.9482578,2.4232142 1.9352704,2.3861251 1.9302232,2.1001751 L 1.9428026,1.8984513 1.8541194,1.8935731 1.5102144,1.8890519 1.3810857,1.83874 C 1.3100637,1.811069 1.3265537,1.789622 1.3239117,1.792024 c -0.00264,0.00242 0.02445,0.064829 0.059436,0.2244552 l 0.063606,0.2902305 0.2164149,0.3123402 0.2164153,0.3123402 0.05282,0.465453 0.052821,0.4654512 -0.024084,0.053472 C 1.9316027,3.9817849 1.8022939,4.0171793 1.7298211,4.0175019 1.6675981,4.0177775 1.6117026,3.9877819 1.5810577,3.9376639 1.5645347,3.9106389 1.5459837,3.7949869 1.5035617,3.4542319 L 1.4478001,3.0063274 1.3861315,2.9269249 c -0.03392,-0.043667 -0.0629,-0.078194 -0.064405,-0.076711 -0.00148,0.00147 -0.053178,0.2404571 -0.1310562,0.5310745 C 1.1061703,3.6966022 1.0745948,3.9244281 1.0589874,3.946251 1.0148191,4.008012 0.89087447,4.0619682 0.80611858,4.0544554 Z M 1.8211019,1.3615272 1.5298683,1.3627272 1.3429487,1.3013632 c -0.1028082,-0.033753 -0.082525,-0.0327 -0.083493,-0.031893 -9.483e-4,8.175e-4 -0.013233,-0.021632 -0.007,0.010652 l 0.011343,0.058681 0.092134,0.1011195 0.2101449,0.1291015 0.342625,-0.00126 0.058128,-0.00657 0.010769,-0.072596 C 1.9731918,1.3224514 2.0875688,1.3495277 1.8211019,1.3615272 Z M 0.72238663,0.74774026 C 0.45701382,0.6654102 0.37338769,0.34433964 0.56538139,0.14495112 0.79259053,-0.09100859 1.1889584,0.10364704 1.1572748,0.43564055 1.1368555,0.6497117 0.91637905,0.80792965 0.72238663,0.74774026 Z"
       id="path870"
       sodipodi:nodetypes="ccccccccscccccccscccccccccccccccccccaccccccccccccccccscccccccccscccccccccccccczsccccccccccccccccccccccccccccccccccccccc" />
  </g>
</svg>
