<?xml version="1.0" encoding="UTF-8" standalone="no"?>
<svg
   xmlns:dc="http://purl.org/dc/elements/1.1/"
   xmlns:cc="http://creativecommons.org/ns#"
   xmlns:rdf="http://www.w3.org/1999/02/22-rdf-syntax-ns#"
   xmlns:svg="http://www.w3.org/2000/svg"
   xmlns="http://www.w3.org/2000/svg"
   xmlns:sodipodi="http://sodipodi.sourceforge.net/DTD/sodipodi-0.dtd"
   xmlns:inkscape="http://www.inkscape.org/namespaces/inkscape"
   version="1.0"
   width="17"
   height="17"
   viewBox="0 0 12.75 12.75"
   preserveAspectRatio="xMidYMid meet"
   id="svg10"
   sodipodi:docname="EDF_Edif_Ensino_branco.svg"
   inkscape:version="0.92.3 (2405546, 2018-03-11)">
  <defs
     id="defs14" />
  <sodipodi:namedview
     pagecolor="#ffffff"
     bordercolor="#666666"
     borderopacity="1"
     objecttolerance="10"
     gridtolerance="10"
     guidetolerance="10"
     inkscape:pageopacity="0"
     inkscape:pageshadow="2"
     inkscape:window-width="1366"
     inkscape:window-height="705"
     id="namedview12"
     showgrid="false"
     units="px"
     inkscape:pagecheckerboard="false"
     inkscape:zoom="25"
     inkscape:cx="6.9140435"
     inkscape:cy="8.4563693"
     inkscape:window-x="-8"
     inkscape:window-y="-8"
     inkscape:window-maximized="1"
     inkscape:current-layer="g8" />
  <metadata
     id="metadata2">
Created by potrace 1.15, written by Peter Selinger 2001-2017
<rdf:RDF>
  <cc:Work
     rdf:about="">
    <dc:format>image/svg+xml</dc:format>
    <dc:type
       rdf:resource="http://purl.org/dc/dcmitype/StillImage" />
    <dc:title></dc:title>
  </cc:Work>
</rdf:RDF>
</metadata>
  <g
     transform="matrix(0.00784376,0,0,-0.01098321,-0.05443753,14.221861)"
     id="g8"
     style="fill:#ffffff;stroke:none">
    <path
       d="m 384.05361,1075.2348 c -218,-83.00004 -364.465443,-116.08696 -367.077617,-163.45588 0,0 9.084503,-76.17471 -5.503127,-99.79319 L 81.813543,771.16236 194.07349,717.0397 c 2,-84 -1.24762,-96.78939 -14.24762,-103.78939 -19,-11 -6.82144,-49.6471 13.17856,-65.6471 12,-10 -7.76784,-15 -18.76784,-33 -14,-23 -23.29464,-85.58841 -24.29464,-227.58841 l -6.58927,-80.29421 127.12937,-18.61147 78.35711,5.28052 3.29464,35.94131 c 7.6836,83.82058 -2.52681,263.29421 -12.52681,282.29421 C 331.60699,525.62516 339,541 350,550 c 19,16 -7.16084,46.33095 -26.16084,67.33095 -12,14 11.35711,-26.93994 13.35711,43.06006 -8.41499,8.05172 8.51673,19.15176 12.77509,28.72764 66,-24 29.84218,-28.95629 51.84218,-37.95629 22,-8 56,-21 75,-28 19,-7 53,-20 75,-28 22,-9 73,-28 113,-42 l 144.48205,-73.42935 176.18646,82.83764 c 45.00005,16 198.29465,49.47104 335.29465,102.47104 138,52 296.4732,97.58841 314.7054,144.52896 0,0 8.5179,84.42935 -27.4821,95.42935 -13,4 -49.8214,41.82317 -99.8214,60.82317 -49,20 -110.884,46.05873 -124.884,50.05873 -14,5 -168.9016,59.3521 -196.9016,70.3521 C 1002.393,1158.234 829,1200 823,1200 c -5,-1 -219.94639,-40.7652 -438.94639,-124.7652 z"
       id="path4"
       inkscape:connector-curvature="0"
       style="fill:#ffffff"
       sodipodi:nodetypes="csccccccccccsccccccscccccccccccc" />
    <path
       d="M 350,550 V 381 l 48,-24 c 101,-51 204,-80 347,-97 162,-19 364.6429,5.82393 486.6429,82.82393 l 91.4196,51.88186 16.4732,157.64711 c 12.1095,115.88765 -9.5893,160 -19.5893,160 -7,0 -49.9464,-6.3529 -54.9464,-11.3529 -6,-4 -48,-22 -95,-39 -47,-17 -142,-53 -212,-80 L 830,532 658,600 c -95,38 -203,80 -240,94 l -68,25 z"
       id="path6"
       inkscape:connector-curvature="0"
       style="fill:#ffffff"
       sodipodi:nodetypes="ccccccsscscccccc" />
  </g>
  <g
     style="fill:#000000;stroke:none"
     id="g4774"
     transform="matrix(0.00707106,0,0,-0.00947869,0.58690347,13.148977)">
    <path
       inkscape:connector-curvature="0"
       id="path4770"
       d="M 417,1047 C 199,964 21,892 23,887 c 2,-6 36,-22 77,-37 l 75,-27 3,-104 c 2,-84 0,-104 -13,-111 -19,-11 -20,-52 0,-68 12,-10 12,-15 1,-33 -14,-23 -20,-95 -21,-237 v -85 l 53,-3 52,-3 v 43 c 0,84 -19,268 -29,287 -8,14 -7,22 4,31 19,16 19,49 0,70 -12,14 -15,37 -13,107 l 3,90 120,-44 c 66,-24 138,-51 160,-60 22,-8 56,-21 75,-28 19,-7 53,-20 75,-28 22,-9 73,-28 113,-42 l 72,-27 83,31 c 45,16 195,73 332,126 138,52 280,107 318,121 71,27 81,38 45,49 -13,4 -63,23 -113,42 -49,20 -101,39 -115,43 -14,5 -47,17 -75,28 -184,72 -476,182 -482,182 -5,-1 -187,-69 -406,-153 z" />
    <path
       inkscape:connector-curvature="0"
       id="path4772"
       d="M 350,550 V 381 l 48,-24 c 101,-51 204,-80 347,-97 162,-19 391,27 513,104 l 42,26 v 160 c 0,125 -3,160 -13,160 -7,0 -17,-4 -22,-9 -6,-4 -48,-22 -95,-39 -47,-17 -142,-53 -212,-80 L 830,532 658,600 c -95,38 -203,80 -240,94 l -68,25 z" />
  </g>
</svg>
