<?xml version="1.0" encoding="UTF-8" standalone="no"?>
<svg
   xmlns:dc="http://purl.org/dc/elements/1.1/"
   xmlns:cc="http://creativecommons.org/ns#"
   xmlns:rdf="http://www.w3.org/1999/02/22-rdf-syntax-ns#"
   xmlns:svg="http://www.w3.org/2000/svg"
   xmlns="http://www.w3.org/2000/svg"
   xmlns:sodipodi="http://sodipodi.sourceforge.net/DTD/sodipodi-0.dtd"
   xmlns:inkscape="http://www.inkscape.org/namespaces/inkscape"
   version="1.0"
   width="17"
   height="17"
   viewBox="0 0 12.75 12.75"
   preserveAspectRatio="xMidYMid meet"
   id="svg14"
   sodipodi:docname="EDF_Delegacia_Policia_15px_branco.svg"
   inkscape:version="0.92.3 (2405546, 2018-03-11)">
  <defs
     id="defs18" />
  <sodipodi:namedview
     pagecolor="#ffffff"
     bordercolor="#666666"
     borderopacity="1"
     objecttolerance="10"
     gridtolerance="10"
     guidetolerance="10"
     inkscape:pageopacity="0"
     inkscape:pageshadow="2"
     inkscape:window-width="1366"
     inkscape:window-height="705"
     id="namedview16"
     showgrid="false"
     inkscape:zoom="25.173334"
     inkscape:cx="6.7494896"
     inkscape:cy="7.8153717"
     inkscape:window-x="-8"
     inkscape:window-y="-8"
     inkscape:window-maximized="1"
     inkscape:current-layer="svg14"
     units="px"
     inkscape:pagecheckerboard="true" />
  <metadata
     id="metadata2">
Created by potrace 1.15, written by Peter Selinger 2001-2017
<rdf:RDF>
  <cc:Work
     rdf:about="">
    <dc:format>image/svg+xml</dc:format>
    <dc:type
       rdf:resource="http://purl.org/dc/dcmitype/StillImage" />
    <dc:title></dc:title>
  </cc:Work>
</rdf:RDF>
</metadata>
  <g
     inkscape:groupmode="layer"
     id="layer2"
     inkscape:label="Layer 2"
     transform="translate(0,-212.25)" />
  <g
     inkscape:groupmode="layer"
     id="layer1"
     inkscape:label="Layer 1"
     transform="translate(0,-212.25)" />
  <ellipse
     style="opacity:1;fill:#ffffff;fill-opacity:1;stroke:#fcffff;stroke-width:0;stroke-linecap:butt;stroke-linejoin:round;stroke-miterlimit:4;stroke-dasharray:none;stroke-opacity:1;paint-order:stroke fill markers"
     id="path4771"
     cx="7.5675321"
     cy="3.1565151"
     rx="3.5156245"
     ry="3.1283102" />
  <rect
     style="opacity:1;fill:#ffffff;fill-opacity:1;stroke:#fcffff;stroke-width:0;stroke-linecap:butt;stroke-linejoin:round;stroke-miterlimit:4;stroke-dasharray:none;stroke-opacity:1;paint-order:stroke fill markers"
     id="rect4773"
     width="6.5843487"
     height="1.9961598"
     x="4.2604609"
     y="0.028204929" />
  <ellipse
     style="opacity:1;fill:#ffffff;fill-opacity:1;stroke:#fcffff;stroke-width:0;stroke-linecap:butt;stroke-linejoin:round;stroke-miterlimit:4;stroke-dasharray:none;stroke-opacity:1;paint-order:stroke fill markers"
     id="path4775"
     cx="1.9812632"
     cy="3.6779003"
     rx="1.6833289"
     ry="1.5641551" />
  <ellipse
     style="opacity:1;fill:#ffffff;fill-opacity:1;stroke:#fcffff;stroke-width:0;stroke-linecap:butt;stroke-linejoin:round;stroke-miterlimit:4;stroke-dasharray:none;stroke-opacity:1;paint-order:stroke fill markers"
     id="path4777"
     ry="4.0668035"
     rx="3.8433523"
     cy="6.687036"
     cx="7.8356724" />
  <ellipse
     style="opacity:1;fill:#808080;fill-opacity:1;stroke:#fcffff;stroke-width:0;stroke-linecap:butt;stroke-linejoin:round;stroke-miterlimit:4;stroke-dasharray:none;stroke-opacity:1;paint-order:stroke fill markers"
     id="path4779"
     cx="8.5209217"
     cy="8.5789194"
     rx="0.80442262"
     ry="0.893803" />
  <ellipse
     style="opacity:1;fill:#808080;fill-opacity:1;stroke:#fcffff;stroke-width:0;stroke-linecap:butt;stroke-linejoin:round;stroke-miterlimit:4;stroke-dasharray:none;stroke-opacity:1;paint-order:stroke fill markers"
     id="path4781"
     cx="7.701602"
     cy="8.1767082"
     rx="0.52138507"
     ry="0.67035222" />
  <ellipse
     style="opacity:1;fill:#ffffff;fill-opacity:1;stroke:#fcffff;stroke-width:0;stroke-linecap:butt;stroke-linejoin:round;stroke-miterlimit:4;stroke-dasharray:none;stroke-opacity:1;paint-order:stroke fill markers"
     id="path4783"
     cx="1.891883"
     cy="7.8787746"
     rx="1.564155"
     ry="1.713122" />
  <rect
     style="opacity:1;fill:#ffffff;fill-opacity:1;stroke:#fcffff;stroke-width:0;stroke-linecap:butt;stroke-linejoin:round;stroke-miterlimit:4;stroke-dasharray:none;stroke-opacity:1;paint-order:stroke fill markers"
     id="rect4785"
     width="3.2772772"
     height="4.3200479"
     x="0.35752136"
     y="3.6630032" />
  <rect
     style="opacity:1;fill:#ffffff;fill-opacity:1;stroke:#fcffff;stroke-width:0;stroke-linecap:butt;stroke-linejoin:round;stroke-miterlimit:4;stroke-dasharray:none;stroke-opacity:1;paint-order:stroke fill markers"
     id="rect4787"
     width="8.0168285"
     height="6.007689"
     x="3.6621969"
     y="6.74231" />
  <rect
     style="opacity:1;fill:#ffffff;fill-opacity:1;stroke:#fcffff;stroke-width:0;stroke-linecap:butt;stroke-linejoin:round;stroke-miterlimit:4;stroke-dasharray:none;stroke-opacity:1;paint-order:stroke fill markers"
     id="rect4789"
     width="5.3032308"
     height="4.3796339"
     x="1.579052"
     y="5.2122626" />
  <g
     transform="matrix(0.00596401,0,0,-0.00568174,-0.02086938,12.750865)"
     id="g4799"
     style="fill:#000000;stroke:none;stroke-opacity:1">
    <path
       d="m 800,2125 c 0,-8 4,-15 9,-15 5,0 26,-34 48,-75 l 38,-75 h 380 380 l 43,83 c 23,45 42,85 42,90 0,4 -211,7 -470,7 -411,0 -470,-2 -470,-15 z"
       id="path4791"
       inkscape:connector-curvature="0"
       style="stroke:none;stroke-opacity:1" />
    <path
       d="m 900,1763 c 0,-132 19,-224 61,-304 65,-121 166,-179 314,-179 148,0 249,58 314,179 42,80 61,172 61,304 v 107 H 1275 900 Z"
       id="path4793"
       inkscape:connector-curvature="0"
       style="stroke:none;stroke-opacity:1" />
    <path
       d="m 232,1634 c -18,-9 -43,-31 -55,-48 -22,-30 -22,-38 -25,-371 -2,-304 -1,-344 14,-378 20,-44 85,-87 130,-86 16,0 123,22 239,48 l 210,47 5,-325 5,-326 425,493 c 234,271 427,497 428,503 2,5 -118,9 -313,9 H 979 l -254,-55 c -141,-30 -260,-55 -265,-55 -6,0 -10,82 -10,221 0,244 -5,270 -63,311 -39,28 -112,34 -155,12 z"
       id="path4795"
       inkscape:connector-curvature="0"
       style="stroke:none;stroke-opacity:1" />
    <path
       d="M 1567,861 C 1099,312 983,174 976,162 c -6,-9 79,-12 409,-12 h 416 l -3,442 c -3,383 -5,447 -19,472 l -16,29 z"
       id="path4797"
       inkscape:connector-curvature="0"
       style="stroke:none;stroke-opacity:1" />
  </g>
</svg>
