<?xml version="1.0" standalone="no"?>
<!DOCTYPE svg PUBLIC "-//W3C//DTD SVG 20010904//EN"
 "http://www.w3.org/TR/2001/REC-SVG-20010904/DTD/svg10.dtd">
<svg version="1.0" xmlns="http://www.w3.org/2000/svg"
 width="193.000000pt" height="213.000000pt" viewBox="0 0 193.000000 213.000000"
 preserveAspectRatio="xMidYMid meet">
<metadata>
Created by potrace 1.15, written by Peter Selinger 2001-2017
</metadata>
<g transform="translate(0.000000,213.000000) scale(0.100000,-0.100000)"
fill="#000000" stroke="none">
<path d="M140 2020 c-19 -19 -20 -33 -20 -383 0 -392 2 -407 53 -407 13 0 33
-7 45 -16 l22 -15 0 -502 c0 -385 3 -508 13 -527 l13 -25 469 -3 c433 -2 471
-1 483 15 9 13 12 118 12 443 0 307 3 429 11 437 13 13 67 7 84 -9 6 -5 12
-159 15 -401 l5 -392 34 -53 c18 -28 37 -52 43 -52 5 0 16 -7 24 -15 12 -12
41 -15 127 -15 131 0 178 16 223 76 l29 38 -1 245 c-1 404 -47 940 -100 1166
-35 146 -98 231 -189 254 -77 19 -75 21 -75 -73 0 -80 2 -86 29 -114 40 -40
47 -72 81 -379 50 -469 63 -624 64 -794 1 -152 -1 -169 -18 -188 -29 -32 -92
-26 -120 12 -20 27 -21 37 -18 325 2 180 -1 318 -8 351 -18 97 -92 160 -187
161 -24 0 -43 4 -43 9 0 15 42 41 66 41 11 0 28 8 37 18 15 17 17 58 17 385 0
354 -1 368 -20 387 -20 20 -33 20 -600 20 -567 0 -580 0 -600 -20z m1078 -112
c17 -17 17 -529 0 -546 -17 -17 -939 -17 -956 0 -17 17 -17 529 0 546 17 17
939 17 956 0z"/>
</g>
</svg>
