<?xml version="1.0" standalone="no"?>
<!DOCTYPE svg PUBLIC "-//W3C//DTD SVG 20010904//EN"
 "http://www.w3.org/TR/2001/REC-SVG-20010904/DTD/svg10.dtd">
<svg version="1.0" xmlns="http://www.w3.org/2000/svg"
 width="1182.000000pt" height="1280.000000pt" viewBox="0 0 1182.000000 1280.000000"
 preserveAspectRatio="xMidYMid meet">
<g transform="translate(0.000000,1280.000000) scale(0.100000,-0.100000)"
fill="#000000" stroke="none">
<path d="M1443 12776 c-79 -29 -117 -59 -195 -149 -324 -376 -647 -953 -859
-1534 -191 -522 -315 -1108 -358 -1688 -6 -77 -16 -212 -22 -300 -12 -162 -9
-330 10 -615 44 -642 138 -1132 321 -1680 168 -504 386 -952 659 -1352 188
-276 338 -441 427 -472 154 -52 321 18 388 163 16 35 21 65 20 126 0 99 -19
141 -109 245 -176 203 -369 504 -530 825 -98 198 -113 236 -253 655 -101 302
-159 492 -180 590 -97 454 -133 803 -133 1290 0 384 23 669 81 1016 49 294 77
397 227 844 135 405 153 450 253 655 165 336 323 586 513 813 115 138 132 173
131 277 0 62 -5 90 -22 125 -42 85 -105 138 -201 169 -79 26 -91 26 -168 -3z"/>
<path d="M10196 12777 c-73 -27 -155 -99 -187 -164 -18 -37 -23 -66 -23 -128
-1 -104 16 -139 131 -277 190 -227 348 -477 513 -813 100 -205 118 -250 253
-655 150 -447 178 -550 227 -844 58 -347 81 -632 81 -1016 0 -487 -36 -836
-133 -1290 -21 -98 -79 -288 -180 -590 -140 -419 -155 -457 -253 -655 -160
-319 -355 -624 -526 -820 -92 -106 -114 -153 -114 -250 0 -68 4 -89 28 -137
33 -67 80 -112 155 -146 47 -21 64 -24 136 -20 100 6 144 26 220 105 198 207
462 608 656 998 247 497 440 1099 534 1660 78 467 120 1057 97 1370 -6 88 -16
223 -22 300 -60 817 -269 1592 -615 2285 -155 309 -284 521 -478 780 -138 185
-224 271 -301 300 -83 31 -129 33 -199 7z"/>
<path d="M2967 11580 c-88 -23 -144 -69 -256 -214 -819 -1062 -1023 -2709
-504 -4066 134 -350 324 -690 526 -938 120 -148 191 -192 308 -192 171 0 303
133 303 305 0 86 -28 153 -102 239 -267 311 -495 799 -611 1310 -115 504 -121
1111 -15 1636 104 520 320 1002 616 1371 69 87 88 118 102 170 53 186 -77 369
-271 384 -32 2 -75 0 -96 -5z"/>
<path d="M8700 11577 c-121 -34 -206 -133 -225 -260 -9 -61 17 -159 58 -213
17 -24 66 -87 108 -141 318 -415 537 -994 616 -1625 25 -205 25 -725 0 -923
-36 -273 -82 -483 -158 -722 -112 -351 -309 -725 -508 -965 -92 -112 -115
-162 -115 -253 0 -217 212 -362 418 -285 68 26 134 90 249 243 653 871 907
2161 662 3362 -123 604 -377 1172 -710 1590 -84 105 -133 151 -191 176 -56 25
-148 32 -204 16z"/>
<path d="M4322 10379 c-69 -13 -141 -59 -195 -124 -181 -217 -343 -563 -406
-873 -55 -264 -65 -609 -26 -862 49 -326 160 -624 322 -870 131 -199 216 -268
339 -278 124 -10 242 58 302 172 22 43 26 63 26 131 -1 97 -11 122 -98 238
-201 270 -297 581 -297 962 0 401 99 709 323 1003 59 78 83 152 74 230 -17
143 -112 246 -250 271 -33 6 -62 11 -65 10 -3 -1 -25 -5 -49 -10z"/>
<path d="M7337 10380 c-91 -16 -178 -86 -221 -179 -16 -35 -21 -65 -20 -126 0
-94 11 -120 106 -246 66 -87 136 -216 182 -331 37 -93 82 -283 97 -402 17
-143 6 -442 -21 -571 -50 -234 -141 -444 -266 -610 -87 -116 -109 -176 -101
-267 23 -253 323 -366 514 -194 91 82 225 289 309 479 241 544 257 1237 40
1791 -86 219 -215 440 -325 554 -81 84 -185 120 -294 102z"/>
<path d="M5799 9920 c-440 -55 -802 -406 -870 -841 -18 -118 -6 -325 25 -432
84 -284 261 -497 521 -627 153 -77 265 -103 450 -103 129 0 164 4 246 26 361
95 636 368 730 725 27 100 36 304 19 410 -64 397 -357 719 -745 817 -105 27
-274 38 -376 25z"/>
<path d="M5730 7165 c-36 -8 -101 -33 -145 -54 -279 -138 -470 -449 -625
-1019 -16 -60 -387 -1311 -825 -2781 -545 -1829 -794 -2679 -789 -2694 12 -37
125 -146 199 -192 92 -58 215 -115 345 -160 327 -114 867 -205 1390 -235 102
-6 237 -15 302 -20 149 -13 442 -13 600 0 68 5 204 14 303 20 669 41 1241 154
1581 314 183 87 344 221 344 288 0 24 -1443 4919 -1642 5568 -116 379 -234
609 -397 770 -141 140 -277 200 -466 206 -72 2 -133 -2 -175 -11z"/>
</g>
</svg>
