<?xml version="1.0" standalone="no"?>
<!DOCTYPE svg PUBLIC "-//W3C//DTD SVG 20010904//EN"
 "http://www.w3.org/TR/2001/REC-SVG-20010904/DTD/svg10.dtd">
<svg version="1.0" xmlns="http://www.w3.org/2000/svg"
 width="436.000000pt" height="433.000000pt" viewBox="0 0 436.000000 433.000000"
 preserveAspectRatio="xMidYMid meet">
<metadata>
Created by potrace 1.15, written by Peter Selinger 2001-2017
</metadata>
<g transform="translate(0.000000,433.000000) scale(0.100000,-0.100000)"
fill="#000000" stroke="none">
<path d="M1990 3556 l0 -85 -47 -6 c-79 -11 -293 -73 -360 -104 -102 -48 -222
-155 -301 -268 -31 -45 -69 -156 -83 -245 -21 -134 4 -274 77 -421 30 -62 146
-188 225 -244 50 -35 284 -153 305 -153 8 0 40 -9 71 -19 32 -11 70 -22 86
-25 l27 -6 0 -355 c0 -195 -2 -355 -5 -355 -19 0 -89 47 -142 94 -71 65 -123
144 -149 229 l-18 58 -50 -6 c-229 -25 -334 -35 -417 -41 l-96 -7 13 -56 c25
-110 33 -137 60 -196 75 -166 217 -316 372 -394 95 -47 257 -99 337 -107 105
-11 95 7 95 -174 l0 -160 160 0 160 0 0 164 0 163 98 21 c241 52 368 108 512
230 127 107 197 212 241 367 18 64 18 302 0 363 -67 231 -267 415 -536 495
-60 18 -167 49 -252 73 l-63 18 0 329 c0 296 2 329 16 323 9 -3 20 -6 24 -6 5
0 36 -22 69 -50 55 -46 99 -114 125 -192 7 -22 21 -22 151 -3 55 7 165 19 244
25 80 6 147 12 149 14 10 11 -35 150 -70 216 -91 169 -242 288 -443 348 -83
24 -175 48 -227 56 l-38 7 0 84 0 85 -160 0 -160 0 0 -84z m-5 -1054 c-9 -9
-89 28 -137 63 -61 45 -108 141 -108 219 0 101 70 203 180 261 l65 34 3 -286
c1 -157 0 -288 -3 -291z m390 -618 c50 -11 161 -73 198 -111 55 -55 77 -110
77 -196 0 -89 -27 -150 -97 -221 -49 -49 -142 -99 -208 -112 l-35 -6 0 332 c0
311 1 331 18 326 9 -3 31 -8 47 -12z"/>
</g>
</svg>
