<?xml version="1.0" standalone="no"?>
<!DOCTYPE svg PUBLIC "-//W3C//DTD SVG 20010904//EN"
 "http://www.w3.org/TR/2001/REC-SVG-20010904/DTD/svg10.dtd">
<svg version="1.0" xmlns="http://www.w3.org/2000/svg"
 width="178.000000pt" height="180.000000pt" viewBox="0 0 178.000000 180.000000"
 preserveAspectRatio="xMidYMid meet">
<metadata>
Created by potrace 1.15, written by Peter Selinger 2001-2017
</metadata>
<g transform="translate(0.000000,180.000000) scale(0.100000,-0.100000)"
fill="#000000" stroke="none">
<path d="M830 1405 l0 -305 -305 0 -305 0 0 -465 0 -465 -45 0 -45 0 0 -60 0
-60 750 0 750 0 0 60 0 60 -45 0 -45 0 0 465 0 465 -315 0 -315 0 0 305 0 305
-40 0 -40 0 0 -305z m-250 -635 l0 -110 -110 0 -110 0 0 103 c0 57 3 107 7
110 3 4 53 7 110 7 l103 0 0 -110z m408 -2 l3 -108 -111 0 -110 0 0 103 c0 57
3 107 7 111 4 4 52 5 107 4 l101 -3 3 -107z m410 0 l3 -108 -111 0 -110 0 0
110 0 111 108 -3 107 -3 3 -107z m-818 -318 l0 -111 -107 3 -108 3 -3 108 -3
107 111 0 110 0 0 -110z m440 -80 l0 -190 -140 0 -140 0 0 190 0 190 140 0
140 0 0 -190z m378 83 l-3 -108 -107 -3 -108 -3 0 111 0 110 110 0 111 0 -3
-107z"/>
<path d="M920 1550 l0 -160 210 0 210 0 0 160 0 160 -210 0 -210 0 0 -160z"/>
</g>
</svg>
