<?xml version="1.0" standalone="no"?>
<!DOCTYPE svg PUBLIC "-//W3C//DTD SVG 20010904//EN"
 "http://www.w3.org/TR/2001/REC-SVG-20010904/DTD/svg10.dtd">
<svg version="1.0" xmlns="http://www.w3.org/2000/svg"
 width="449.000000pt" height="256.000000pt" viewBox="0 0 449.000000 256.000000"
 preserveAspectRatio="xMidYMid meet">
<metadata>
Created by potrace 1.15, written by Peter Selinger 2001-2017
</metadata>
<g transform="translate(0.000000,256.000000) scale(0.100000,-0.100000)"
fill="#000000" stroke="none">
<path d="M279 2542 c-12 -5 233 -250 968 -967 541 -528 988 -960 993 -960 4 0
451 432 992 960 721 704 980 962 968 967 -19 9 -3900 8 -3921 0z"/>
<path d="M30 1175 l0 -1079 32 30 c17 16 264 252 548 525 l516 495 -548 554
-548 554 0 -1079z"/>
<path d="M3887 1656 l-557 -563 112 -108 c62 -60 291 -282 508 -494 217 -212
419 -407 447 -435 l53 -50 0 1107 c0 609 -1 1106 -3 1106 -1 -1 -253 -254
-560 -563z"/>
<path d="M915 493 l-486 -458 865 -3 c475 -1 1256 -1 1734 0 l869 3 -431 437
-431 437 -404 -370 c-222 -203 -411 -374 -421 -379 -28 -15 -70 22 -300 261
-118 123 -280 293 -361 377 l-148 152 -486 -457z"/>
</g>
</svg>
