<?xml version="1.0" standalone="no"?>
<!DOCTYPE svg PUBLIC "-//W3C//DTD SVG 20010904//EN"
 "http://www.w3.org/TR/2001/REC-SVG-20010904/DTD/svg10.dtd">
<svg version="1.0" xmlns="http://www.w3.org/2000/svg"
 width="226.000000pt" height="202.000000pt" viewBox="0 0 226.000000 202.000000"
 preserveAspectRatio="xMidYMid meet">
<metadata>
Created by potrace 1.15, written by Peter Selinger 2001-2017
</metadata>
<g transform="translate(0.000000,202.000000) scale(0.100000,-0.100000)"
fill="#000000" stroke="none">
<path d="M546 1575 c-180 -46 -332 -87 -338 -93 -14 -14 -11 -591 3 -608 6 -8
24 -14 40 -14 l29 0 0 264 c0 199 3 266 13 274 6 5 134 44 282 86 149 43 294
84 323 92 37 11 52 20 52 33 0 23 -31 51 -56 50 -10 0 -167 -38 -348 -84z"/>
<path d="M617 1403 c-125 -36 -227 -69 -227 -72 1 -10 168 -121 182 -121 7 0
116 34 243 76 126 41 236 78 244 80 9 3 -14 24 -60 54 -59 40 -82 50 -114 49
-22 0 -142 -30 -268 -66z"/>
<path d="M1155 1292 c-11 -2 -141 -40 -290 -84 -183 -54 -279 -78 -298 -74
-16 3 -55 22 -88 42 -83 52 -89 47 -89 -81 0 -73 5 -115 14 -134 10 -19 85
-72 233 -167 120 -76 290 -185 378 -241 l160 -102 5 196 5 196 260 89 c143 49
267 91 275 94 16 6 -465 253 -515 263 -16 4 -39 5 -50 3z"/>
<path d="M1669 902 c-185 -53 -343 -103 -352 -111 -15 -12 -17 -44 -17 -272 0
-221 2 -260 16 -273 19 -19 67 -21 82 -3 7 8 13 69 14 148 l3 134 31 2 c16 0
133 29 259 62 126 34 235 59 242 57 9 -4 13 -31 13 -99 0 -69 4 -98 14 -106
18 -16 64 -4 76 19 14 25 13 496 0 521 -6 10 -18 19 -28 18 -9 0 -168 -44
-353 -97z"/>
</g>
</svg>
