<?xml version="1.0" standalone="no"?>
<!DOCTYPE svg PUBLIC "-//W3C//DTD SVG 20010904//EN"
 "http://www.w3.org/TR/2001/REC-SVG-20010904/DTD/svg10.dtd">
<svg version="1.0" xmlns="http://www.w3.org/2000/svg"
 width="536.000000pt" height="562.000000pt" viewBox="0 0 536.000000 562.000000"
 preserveAspectRatio="xMidYMid meet">
<metadata>
Created by potrace 1.15, written by Peter Selinger 2001-2017
</metadata>
<g transform="translate(0.000000,562.000000) scale(0.100000,-0.100000)"
fill="#000000" stroke="none">
<path d="M460 4773 c-145 -433 -265 -794 -268 -800 -3 -10 108 -13 537 -13
298 0 541 1 541 3 0 7 -540 1590 -544 1594 -2 2 -122 -350 -266 -784z"/>
<path d="M4280 4733 c-145 -433 -265 -794 -268 -800 -3 -10 108 -13 537 -13
298 0 541 1 541 3 0 7 -540 1590 -544 1594 -2 2 -122 -350 -266 -784z"/>
<path d="M180 2080 l0 -1690 540 0 540 0 0 1690 0 1690 -540 0 -540 0 0 -1690z
m593 1465 c66 -27 67 -33 67 -297 l0 -238 -140 0 -140 0 0 243 c1 263 1 266
60 294 35 17 111 16 153 -2z"/>
<path d="M4020 2020 l0 -1690 540 0 540 0 0 1690 0 1690 -540 0 -540 0 0
-1690z m593 1465 c66 -27 67 -33 67 -297 l0 -238 -140 0 -140 0 0 243 c1 263
1 266 60 294 35 17 111 16 153 -2z"/>
<path d="M2289 3142 c-195 -131 -388 -262 -429 -290 -41 -29 -123 -85 -183
-125 -59 -40 -123 -83 -142 -96 l-35 -24 0 -1124 0 -1123 400 0 400 0 0 350
c0 350 0 351 24 398 37 72 80 105 185 140 88 30 177 29 267 -2 96 -33 139 -60
176 -114 l33 -47 3 -362 3 -363 400 0 399 0 0 1123 0 1123 -202 134 c-112 73
-232 156 -268 184 -36 28 -90 66 -121 86 -31 19 -164 107 -295 196 -132 88
-244 163 -250 167 -6 3 -170 -101 -365 -231z m451 -93 c60 -27 88 -54 116
-114 32 -68 31 -127 -3 -196 -67 -131 -223 -168 -333 -80 -72 58 -101 145 -80
246 27 130 174 201 300 144z m720 -974 l0 -315 -215 0 -215 0 0 315 0 315 215
0 215 0 0 -315z m-1230 -5 l0 -310 -205 0 -205 0 0 310 0 310 205 0 205 0 0
-310z"/>
</g>
</svg>
