<?xml version="1.0" standalone="no"?>
<!DOCTYPE svg PUBLIC "-//W3C//DTD SVG 20010904//EN"
 "http://www.w3.org/TR/2001/REC-SVG-20010904/DTD/svg10.dtd">
<svg version="1.0" xmlns="http://www.w3.org/2000/svg"
 width="446.000000pt" height="502.000000pt" viewBox="0 0 446.000000 502.000000"
 preserveAspectRatio="xMidYMid meet">
<metadata>
Created by potrace 1.15, written by Peter Selinger 2001-2017
</metadata>
<g transform="translate(0.000000,502.000000) scale(0.100000,-0.100000)"
fill="#000000" stroke="none">
<path d="M2932 4819 c-217 -28 -371 -251 -318 -459 66 -262 387 -376 605 -216
125 92 179 262 132 412 -57 184 -224 289 -419 263z"/>
<path d="M2870 3939 c-80 -3 -713 -7 -1408 -7 -1237 -2 -1263 -2 -1300 -21
-45 -25 -68 -55 -83 -113 -23 -86 10 -160 93 -208 l53 -30 1055 0 c580 0 1053
-3 1051 -7 -2 -5 -143 -143 -313 -308 l-310 -299 338 -338 339 -338 400 403
c221 221 409 416 419 432 10 17 58 61 108 98 l89 69 97 -94 c53 -51 145 -146
204 -210 l107 -116 -327 -325 c-180 -179 -337 -333 -350 -344 -13 -10 -32 -44
-42 -76 -19 -58 -19 -58 1 -112 37 -99 124 -143 224 -115 40 11 99 64 483 435
240 232 450 440 466 463 38 55 46 127 20 184 -13 29 -147 166 -472 483 -429
419 -457 445 -518 469 -74 30 -168 36 -424 25z"/>
<path d="M1056 2309 c-208 -205 -385 -386 -394 -403 -26 -50 -21 -143 11 -199
50 -85 181 -117 266 -65 40 24 761 749 761 764 0 5 -60 69 -133 142 l-134 134
-377 -373z"/>
<path d="M968 1447 c-609 -605 -862 -863 -873 -889 -32 -79 -12 -180 47 -235
53 -50 146 -67 211 -39 19 8 394 377 897 880 l865 866 -135 135 c-74 74 -139
135 -145 134 -5 0 -396 -383 -867 -852z"/>
<path d="M1480 980 c-19 -5 -48 -12 -64 -16 -79 -19 -221 -152 -239 -224 -37
-146 -39 -165 -28 -237 15 -103 48 -168 119 -238 76 -76 136 -107 237 -125 87
-15 220 11 293 57 45 29 107 95 142 151 101 165 71 382 -72 518 -62 59 -91 78
-150 99 -52 19 -190 27 -238 15z"/>
</g>
</svg>
