<?xml version="1.0" encoding="UTF-8" standalone="no"?>
<svg
   xmlns:dc="http://purl.org/dc/elements/1.1/"
   xmlns:cc="http://creativecommons.org/ns#"
   xmlns:rdf="http://www.w3.org/1999/02/22-rdf-syntax-ns#"
   xmlns:svg="http://www.w3.org/2000/svg"
   xmlns="http://www.w3.org/2000/svg"
   xmlns:sodipodi="http://sodipodi.sourceforge.net/DTD/sodipodi-0.dtd"
   xmlns:inkscape="http://www.inkscape.org/namespaces/inkscape"
   version="1.0"
   width="17"
   height="17"
   viewBox="0 0 12.749999 12.75"
   preserveAspectRatio="xMidYMid meet"
   id="svg8"
   sodipodi:docname="EDF_Edif_Ensino_15px_branco.svg"
   inkscape:version="0.92.3 (2405546, 2018-03-11)">
  <defs
     id="defs12" />
  <sodipodi:namedview
     pagecolor="#ffffff"
     bordercolor="#666666"
     borderopacity="1"
     objecttolerance="10"
     gridtolerance="10"
     guidetolerance="10"
     inkscape:pageopacity="0"
     inkscape:pageshadow="2"
     inkscape:window-width="1366"
     inkscape:window-height="705"
     id="namedview10"
     showgrid="false"
     units="px"
     inkscape:zoom="28.556526"
     inkscape:cx="3.7586618"
     inkscape:cy="8.8994098"
     inkscape:window-x="-8"
     inkscape:window-y="-8"
     inkscape:window-maximized="1"
     inkscape:current-layer="svg8"
     inkscape:pagecheckerboard="true" />
  <metadata
     id="metadata2">
Created by potrace 1.15, written by Peter Selinger 2001-2017
<rdf:RDF>
  <cc:Work
     rdf:about="">
    <dc:format>image/svg+xml</dc:format>
    <dc:type
       rdf:resource="http://purl.org/dc/dcmitype/StillImage" />
    <dc:title></dc:title>
  </cc:Work>
</rdf:RDF>
</metadata>
  <ellipse
     style="opacity:1;fill:#ffffff;fill-opacity:1;stroke:#fcffff;stroke-width:0;stroke-linecap:butt;stroke-linejoin:round;stroke-miterlimit:4;stroke-dasharray:none;stroke-opacity:1;paint-order:stroke fill markers"
     id="path4781"
     ry="1.6714115"
     rx="2.9436545"
     cy="2.7369151"
     cx="3.9802313" />
  <ellipse
     style="opacity:1;fill:#ffffff;fill-opacity:1;stroke:#fcffff;stroke-width:0;stroke-linecap:butt;stroke-linejoin:round;stroke-miterlimit:4;stroke-dasharray:none;stroke-opacity:1;paint-order:stroke fill markers"
     id="path4781-5"
     cx="9.1423292"
     cy="2.8355975"
     rx="2.8190951"
     ry="1.6714115" />
  <path
     style="opacity:1;fill:#ffffff;fill-opacity:1;stroke:#fcffff;stroke-width:0;stroke-linecap:butt;stroke-linejoin:round;stroke-miterlimit:4;stroke-dasharray:none;stroke-opacity:1;paint-order:stroke fill markers"
     id="path4798"
     sodipodi:type="arc"
     sodipodi:cx="1.4110281"
     sodipodi:cy="3.3478999"
     sodipodi:rx="1.4226788"
     sodipodi:ry="0.94713318"
     sodipodi:start="0"
     sodipodi:end="6.2290103"
     d="M 2.833707,3.3478999 A 1.4226788,0.94713318 0 0 1 1.430296,4.2949462 1.4226788,0.94713318 0 0 1 -0.01112878,3.3735523 1.4226788,0.94713318 0 0 1 1.3532388,2.4015484 1.4226788,0.94713318 0 0 1 2.8316198,3.2966141 l -1.4205917,0.051286 z" />
  <path
     style="opacity:1;fill:#999999;fill-opacity:1;stroke:#fcffff;stroke-width:0;stroke-linecap:butt;stroke-linejoin:round;stroke-miterlimit:4;stroke-dasharray:none;stroke-opacity:1;paint-order:stroke fill markers"
     id="path4800"
     sodipodi:type="arc"
     sodipodi:cx="1.6528403"
     sodipodi:cy="3.7615197"
     sodipodi:rx="0.018571239"
     sodipodi:ry="0.074284956"
     sodipodi:start="0"
     sodipodi:end="6.2290103"
     d="m 1.6714115,3.7615197 a 0.01857124,0.07428496 0 0 1 -0.01832,0.074278 0.01857124,0.07428496 0 0 1 -0.018816,-0.072266 0.01857124,0.07428496 0 0 1 0.01781,-0.076236 0.01857124,0.07428496 0 0 1 0.019298,0.070201 l -0.018544,0.00402 z" />
  <path
     style="opacity:1;fill:#ffffff;fill-opacity:1;stroke:#fcffff;stroke-width:0;stroke-linecap:butt;stroke-linejoin:round;stroke-miterlimit:4;stroke-dasharray:none;stroke-opacity:1;paint-order:stroke fill markers"
     id="path4798-3"
     sodipodi:type="arc"
     sodipodi:cx="11.42928"
     sodipodi:cy="3.1672463"
     sodipodi:rx="1.3176248"
     sodipodi:ry="0.94713318"
     sodipodi:start="0"
     sodipodi:end="6.2290103"
     d="m 12.746905,3.1672463 a 1.3176248,0.94713318 0 0 1 -1.29978,0.9470464 1.3176248,0.94713318 0 0 1 -1.334986,-0.921394 1.3176248,0.94713318 0 0 1 1.263619,-0.9720038 1.3176248,0.94713318 0 0 1 1.369214,0.8950656 l -1.315692,0.051286 z" />
  <rect
     style="opacity:1;fill:#ffffff;fill-opacity:1;stroke:#fcffff;stroke-width:0;stroke-linecap:butt;stroke-linejoin:round;stroke-miterlimit:4;stroke-dasharray:none;stroke-opacity:1;paint-order:stroke fill markers"
     id="rect4817"
     width="12.730857"
     height="9.3322268"
     x="0.014115552"
     y="3.1159606" />
  <g
     style="fill:#000000;stroke:none"
     id="g826-6-5"
     transform="matrix(0.00236339,0,0,-0.00254959,-0.24182098,13.656261)"
     inkscape:transform-center-x="1.1885593"
     inkscape:transform-center-y="0.594944">
    <path
       inkscape:connector-curvature="0"
       id="path824-2-0"
       d="m 3810,4595 c 0,-12 -18,-15 -100,-15 -60,0 -100,-4 -100,-10 0,-5 -16,-10 -35,-10 -19,0 -35,-4 -35,-10 0,-5 -11,-10 -25,-10 -14,0 -25,-4 -25,-10 0,-5 -13,-10 -30,-10 -20,0 -30,-5 -30,-15 0,-11 -12,-15 -45,-15 -25,0 -45,-4 -45,-10 0,-5 -15,-10 -33,-10 -21,0 -38,-7 -47,-20 -8,-11 -25,-20 -37,-20 -13,0 -23,-5 -23,-10 0,-18 -48,-60 -67,-60 -10,0 -25,-9 -33,-20 -8,-11 -25,-20 -37,-20 -13,0 -23,-5 -23,-10 0,-17 -47,-60 -65,-60 -19,0 -45,-23 -45,-39 0,-6 -4,-11 -10,-11 -5,0 -10,7 -10,15 0,11 -12,15 -45,15 -33,0 -45,-4 -45,-15 0,-8 -4,-15 -10,-15 -5,0 -10,7 -10,15 0,8 -7,15 -15,15 -8,0 -15,5 -15,10 0,6 -8,10 -18,10 -10,0 -24,9 -32,20 -8,11 -20,20 -27,20 -7,0 -13,7 -13,15 0,8 -8,15 -18,15 -10,0 -24,9 -32,20 -8,11 -23,20 -33,20 -19,0 -67,42 -67,60 0,5 -10,10 -23,10 -12,0 -29,9 -37,20 -9,13 -26,20 -47,20 -18,0 -33,5 -33,10 0,6 -20,10 -45,10 -33,0 -45,4 -45,15 0,11 -12,15 -45,15 -25,0 -45,5 -45,10 0,6 -20,10 -45,10 -25,0 -45,5 -45,10 0,6 -9,10 -20,10 -11,0 -20,5 -20,10 0,6 -108,10 -305,10 -197,0 -305,-4 -305,-10 0,-5 -20,-10 -45,-10 -25,0 -45,-4 -45,-10 0,-5 -16,-10 -35,-10 -19,0 -35,-4 -35,-10 0,-5 -20,-10 -45,-10 -33,0 -45,-4 -45,-15 0,-11 -12,-15 -45,-15 -25,0 -45,-4 -45,-10 0,-5 -9,-10 -20,-10 -19,0 -20,-7 -20,-100 0,-82 -3,-100 -15,-100 -8,0 -15,-4 -15,-10 0,-5 -13,-10 -30,-10 -16,0 -30,-4 -30,-10 0,-5 -16,-10 -35,-10 -24,0 -35,-5 -35,-15 0,-10 -11,-15 -35,-15 -19,0 -35,-4 -35,-10 0,-5 -20,-10 -45,-10 -25,0 -45,-4 -45,-10 0,-5 -16,-10 -35,-10 -19,0 -35,-4 -35,-10 0,-5 -20,-10 -45,-10 -33,0 -45,-4 -45,-15 0,-8 -9,-15 -20,-15 -11,0 -20,-4 -20,-10 0,-5 -11,-10 -25,-10 H 520 V 2440 790 h 80 c 47,0 80,4 80,10 0,6 20,10 45,10 25,0 45,5 45,10 0,6 33,10 80,10 64,0 80,3 80,15 0,12 19,15 110,15 67,0 110,4 110,10 0,6 72,10 195,10 123,0 195,4 195,10 0,6 58,10 155,10 97,0 155,-4 155,-10 0,-6 52,-10 135,-10 83,0 135,-4 135,-10 0,-6 40,-10 100,-10 82,0 100,-3 100,-15 0,-12 13,-15 60,-15 33,0 60,-4 60,-10 0,-5 20,-10 45,-10 25,0 45,-4 45,-10 0,-5 25,-10 55,-10 30,0 55,-4 55,-10 0,-5 25,-10 55,-10 42,0 55,-3 55,-15 0,-11 12,-15 45,-15 25,0 45,-4 45,-10 0,-5 16,-10 35,-10 19,0 35,5 35,10 0,6 20,10 45,10 33,0 45,4 45,15 0,10 11,15 35,15 19,0 35,5 35,10 0,6 25,10 55,10 30,0 55,5 55,10 0,6 16,10 35,10 19,0 35,5 35,10 0,6 25,10 55,10 42,0 55,3 55,15 0,12 19,15 110,15 67,0 110,4 110,10 0,6 33,10 80,10 47,0 80,4 80,10 0,6 60,10 160,10 100,0 160,-4 160,-10 0,-6 70,-10 190,-10 120,0 190,-4 190,-10 0,-6 40,-10 100,-10 82,0 100,-3 100,-15 0,-12 19,-15 115,-15 70,0 115,-4 115,-10 0,-6 37,-10 90,-10 53,0 90,-4 90,-10 0,-6 32,-10 75,-10 h 75 v 1650 c 0,1643 0,1650 -20,1650 -11,0 -20,5 -20,10 0,6 -11,10 -25,10 -16,0 -25,6 -25,15 0,11 -12,15 -45,15 -25,0 -45,5 -45,10 0,6 -13,10 -30,10 -16,0 -30,5 -30,10 0,6 -20,10 -45,10 -25,0 -45,5 -45,10 0,6 -16,10 -35,10 -24,0 -35,5 -35,15 0,10 -11,15 -35,15 -19,0 -35,5 -35,10 0,6 -14,10 -31,10 -51,0 -59,17 -59,124 0,89 -1,96 -20,96 -11,0 -20,5 -20,10 0,6 -20,10 -45,10 -33,0 -45,4 -45,15 0,10 -11,15 -35,15 -19,0 -35,5 -35,10 0,6 -20,10 -45,10 -25,0 -45,5 -45,10 0,6 -30,10 -70,10 -40,0 -70,4 -70,10 0,6 -28,10 -65,10 -51,0 -65,3 -65,15 0,13 -22,15 -135,15 -113,0 -135,-2 -135,-15 z M 1090,2865 V 1480 h 325 c 210,0 325,-4 325,-10 0,-6 33,-10 80,-10 47,0 80,-4 80,-10 0,-5 20,-10 45,-10 25,0 45,-4 45,-10 0,-5 20,-10 45,-10 33,0 45,-4 45,-15 0,-10 10,-15 30,-15 17,0 30,-4 30,-10 0,-5 16,-10 35,-10 19,0 35,-4 35,-10 0,-5 20,-10 45,-10 25,0 45,-4 45,-10 0,-5 16,-10 35,-10 19,0 35,-4 35,-10 0,-5 9,-10 20,-10 11,0 20,-7 20,-15 0,-9 9,-15 25,-15 14,0 25,-4 25,-10 0,-5 9,-10 20,-10 11,0 20,-4 20,-10 0,-5 11,-10 25,-10 14,0 25,-4 25,-10 0,-5 9,-10 20,-10 20,0 20,7 20,1470 0,1300 2,1470 15,1470 8,0 15,-4 15,-10 0,-5 9,-10 20,-10 11,0 20,-5 20,-11 0,-14 25,-39 39,-39 6,0 11,-4 11,-10 0,-5 7,-10 16,-10 18,0 44,-23 44,-39 0,-6 7,-11 15,-11 8,0 15,7 15,15 0,8 9,15 20,15 11,0 20,5 20,10 0,6 14,10 31,10 30,0 59,-19 59,-39 0,-6 5,-11 10,-11 6,0 10,7 10,15 0,9 9,15 21,15 12,0 34,14 49,30 15,17 37,30 49,30 12,0 21,5 21,11 0,17 27,39 49,39 h 21 V 2690 c 0,-973 3,-1470 10,-1470 6,0 10,5 10,10 0,6 9,10 20,10 11,0 20,5 20,10 0,6 11,10 25,10 14,0 25,5 25,10 0,6 9,10 20,10 11,0 20,7 20,15 0,9 9,15 25,15 14,0 25,5 25,10 0,6 16,10 35,10 19,0 35,5 35,10 0,6 20,10 45,10 25,0 45,5 45,10 0,6 20,10 45,10 25,0 45,5 45,10 0,6 14,10 30,10 20,0 30,5 30,15 0,11 12,15 45,15 25,0 45,5 45,10 0,6 20,10 45,10 25,0 45,5 45,10 0,6 33,10 80,10 47,0 80,4 80,10 0,6 112,10 315,10 h 315 v 1385 c 0,917 3,1385 10,1385 6,0 10,-4 10,-10 0,-5 16,-10 35,-10 24,0 35,-5 35,-15 0,-10 11,-15 35,-15 19,0 35,-4 35,-10 0,-5 16,-10 35,-10 19,0 35,-4 35,-10 0,-5 20,-10 45,-10 25,0 45,-4 45,-10 0,-5 14,-10 30,-10 20,0 30,-5 30,-15 0,-9 9,-15 25,-15 h 25 V 2515 920 h -25 c -16,0 -25,6 -25,15 0,12 -17,15 -90,15 -53,0 -90,4 -90,10 0,6 -52,10 -135,10 -83,0 -135,4 -135,10 0,6 -137,10 -390,10 -253,0 -390,-4 -390,-10 0,-6 -30,-10 -70,-10 -40,0 -70,-4 -70,-10 0,-5 -25,-10 -55,-10 -42,0 -55,-3 -55,-15 0,-12 -14,-15 -70,-15 -40,0 -70,-4 -70,-10 0,-6 -28,-10 -65,-10 -37,0 -65,-4 -65,-10 0,-5 -16,-10 -35,-10 -31,0 -35,-3 -35,-25 0,-18 -5,-25 -20,-25 -11,0 -20,-4 -20,-10 0,-5 -20,-10 -45,-10 -25,0 -45,-4 -45,-10 0,-5 -16,-10 -35,-10 -19,0 -35,-4 -35,-10 0,-5 -20,-10 -45,-10 -33,0 -45,-4 -45,-15 0,-10 -11,-15 -35,-15 -24,0 -35,5 -35,15 0,11 -12,15 -45,15 -25,0 -45,5 -45,10 0,6 -25,10 -55,10 -30,0 -55,5 -55,10 0,6 -14,10 -31,10 -30,0 -59,19 -59,39 0,6 -11,11 -25,11 -14,0 -25,5 -25,10 0,6 -20,10 -45,10 -25,0 -45,5 -45,10 0,6 -9,10 -20,10 -11,0 -20,5 -20,10 0,6 -16,10 -35,10 -24,0 -35,5 -35,15 0,12 -13,15 -55,15 -30,0 -55,5 -55,10 0,6 -45,10 -115,10 -70,0 -115,4 -115,10 0,7 -142,10 -405,10 -263,0 -405,-3 -405,-10 0,-6 -55,-10 -145,-10 -90,0 -145,-4 -145,-10 0,-6 -28,-10 -65,-10 -51,0 -65,-3 -65,-15 0,-10 -11,-15 -35,-15 h -35 v 1595 c 0,1588 0,1595 20,1595 11,0 20,7 20,15 0,10 11,15 35,15 19,0 35,5 35,10 0,6 20,10 45,10 25,0 45,5 45,10 0,6 16,10 35,10 19,0 35,5 35,10 0,6 16,10 35,10 24,0 35,5 35,15 0,10 10,15 30,15 17,0 30,5 30,10 0,6 7,10 15,10 13,0 15,-161 15,-1385 z"
       style="fill:#000000" />
  </g>
</svg>
