<?xml version="1.0" encoding="UTF-8" standalone="no"?>
<svg
   xmlns:dc="http://purl.org/dc/elements/1.1/"
   xmlns:cc="http://creativecommons.org/ns#"
   xmlns:rdf="http://www.w3.org/1999/02/22-rdf-syntax-ns#"
   xmlns:svg="http://www.w3.org/2000/svg"
   xmlns="http://www.w3.org/2000/svg"
   xmlns:sodipodi="http://sodipodi.sourceforge.net/DTD/sodipodi-0.dtd"
   xmlns:inkscape="http://www.inkscape.org/namespaces/inkscape"
   version="1.0"
   width="17"
   height="17"
   viewBox="0 0 12.749999 12.749999"
   preserveAspectRatio="xMidYMid meet"
   id="svg8"
   sodipodi:docname="EDF_Edif_Comerc_Serv_Banco_15px.svg"
   inkscape:version="0.92.3 (2405546, 2018-03-11)">
  <defs
     id="defs12" />
  <sodipodi:namedview
     pagecolor="#ffffff"
     bordercolor="#666666"
     borderopacity="1"
     objecttolerance="10"
     gridtolerance="10"
     guidetolerance="10"
     inkscape:pageopacity="0"
     inkscape:pageshadow="2"
     inkscape:window-width="1366"
     inkscape:window-height="705"
     id="namedview10"
     showgrid="false"
     inkscape:zoom="26.161663"
     inkscape:cx="6.6261447"
     inkscape:cy="7.4256454"
     inkscape:window-x="-8"
     inkscape:window-y="-8"
     inkscape:window-maximized="1"
     inkscape:current-layer="svg8"
     units="px"
     inkscape:pagecheckerboard="true" />
  <metadata
     id="metadata2">
Created by potrace 1.15, written by Peter Selinger 2001-2017
<rdf:RDF>
  <cc:Work
     rdf:about="">
    <dc:format>image/svg+xml</dc:format>
    <dc:type
       rdf:resource="http://purl.org/dc/dcmitype/StillImage" />
    <dc:title></dc:title>
  </cc:Work>
</rdf:RDF>
</metadata>
  <rect
     style="opacity:1;fill:#fffff8;fill-opacity:1;stroke:none;stroke-width:0;stroke-linecap:butt;stroke-linejoin:round;stroke-miterlimit:4;stroke-dasharray:none;stroke-opacity:1;paint-order:stroke fill markers"
     id="rect4765"
     width="2.5227752"
     height="12.441868"
     x="5.18889"
     y="0.16479087" />
  <ellipse
     style="opacity:1;fill:#fffff8;fill-opacity:1;stroke:none;stroke-width:0;stroke-linecap:butt;stroke-linejoin:round;stroke-miterlimit:4;stroke-dasharray:none;stroke-opacity:1;paint-order:stroke fill markers"
     id="path4767"
     cx="3.9991722"
     cy="8.8081608"
     rx="2.79512"
     ry="2.1070905" />
  <ellipse
     style="opacity:1;fill:#fffff8;fill-opacity:1;stroke:none;stroke-width:0;stroke-linecap:butt;stroke-linejoin:round;stroke-miterlimit:4;stroke-dasharray:none;stroke-opacity:1;paint-order:stroke fill markers"
     id="path4771"
     cx="11.542689"
     cy="0.58140576"
     rx="3.6262681"
     ry="3.2105722"
     transform="matrix(0.73202462,0.68127818,-0.70206729,0.71211061,0,0)" />
  <ellipse
     style="opacity:1;fill:#fffff8;fill-opacity:1;stroke:none;stroke-width:0;stroke-linecap:butt;stroke-linejoin:round;stroke-miterlimit:4;stroke-dasharray:none;stroke-opacity:1;paint-order:stroke fill markers"
     id="path4773"
     cx="4.8735433"
     cy="4.0062895"
     rx="3.497484"
     ry="3.1248009" />
  <ellipse
     style="opacity:1;fill:#fffff8;fill-opacity:1;stroke:none;stroke-width:0;stroke-linecap:butt;stroke-linejoin:round;stroke-miterlimit:4;stroke-dasharray:none;stroke-opacity:1;paint-order:stroke fill markers"
     id="path4775"
     cx="7.6686635"
     cy="3.1462526"
     rx="3.5978215"
     ry="2.2360961" />
  <ellipse
     style="opacity:1;fill:#fffff8;fill-opacity:1;stroke:none;stroke-width:0;stroke-linecap:butt;stroke-linejoin:round;stroke-miterlimit:4;stroke-dasharray:none;stroke-opacity:1;paint-order:stroke fill markers"
     id="path4767-0"
     cx="8.7818422"
     cy="5.9391427"
     rx="2.8347476"
     ry="2.0711031"
     transform="matrix(0.85190943,0.52368915,-0.58630722,0.81008879,0,0)" />
  <g
     style="fill:#000000;stroke:none"
     id="g828-5-9"
     transform="matrix(0.0043451,0,0,-0.00359948,-2.9218664,14.055322)">
    <path
       inkscape:connector-curvature="0"
       id="path826-4-1"
       d="m 1990,3556 v -85 l -47,-6 c -79,-11 -293,-73 -360,-104 -102,-48 -222,-155 -301,-268 -31,-45 -69,-156 -83,-245 -21,-134 4,-274 77,-421 30,-62 146,-188 225,-244 50,-35 284,-153 305,-153 8,0 40,-9 71,-19 32,-11 70,-22 86,-25 l 27,-6 v -355 c 0,-195 -2,-355 -5,-355 -19,0 -89,47 -142,94 -71,65 -123,144 -149,229 l -18,58 -50,-6 c -229,-25 -334,-35 -417,-41 l -96,-7 13,-56 c 25,-110 33,-137 60,-196 75,-166 217,-316 372,-394 95,-47 257,-99 337,-107 105,-11 95,7 95,-174 V 510 h 160 160 v 164 163 l 98,21 c 241,52 368,108 512,230 127,107 197,212 241,367 18,64 18,302 0,363 -67,231 -267,415 -536,495 -60,18 -167,49 -252,73 l -63,18 v 329 c 0,296 2,329 16,323 9,-3 20,-6 24,-6 5,0 36,-22 69,-50 55,-46 99,-114 125,-192 7,-22 21,-22 151,-3 55,7 165,19 244,25 80,6 147,12 149,14 10,11 -35,150 -70,216 -91,169 -242,288 -443,348 -83,24 -175,48 -227,56 l -38,7 v 84 85 h -160 -160 z m -5,-1054 c -9,-9 -89,28 -137,63 -61,45 -108,141 -108,219 0,101 70,203 180,261 l 65,34 3,-286 c 1,-157 0,-288 -3,-291 z m 390,-618 c 50,-11 161,-73 198,-111 55,-55 77,-110 77,-196 0,-89 -27,-150 -97,-221 -49,-49 -142,-99 -208,-112 l -35,-6 v 332 c 0,311 1,331 18,326 9,-3 31,-8 47,-12 z" />
  </g>
</svg>
