<?xml version="1.0" encoding="UTF-8" standalone="no"?>
<svg
   xmlns:dc="http://purl.org/dc/elements/1.1/"
   xmlns:cc="http://creativecommons.org/ns#"
   xmlns:rdf="http://www.w3.org/1999/02/22-rdf-syntax-ns#"
   xmlns:svg="http://www.w3.org/2000/svg"
   xmlns="http://www.w3.org/2000/svg"
   xmlns:sodipodi="http://sodipodi.sourceforge.net/DTD/sodipodi-0.dtd"
   xmlns:inkscape="http://www.inkscape.org/namespaces/inkscape"
   version="1.0"
   width="17"
   height="17"
   viewBox="0 0 12.75 12.749999"
   preserveAspectRatio="xMidYMid meet"
   id="svg10"
   sodipodi:docname="LAZ_Praca_15px_branco.svg"
   inkscape:version="0.92.3 (2405546, 2018-03-11)">
  <defs
     id="defs14" />
  <sodipodi:namedview
     pagecolor="#ffffff"
     bordercolor="#666666"
     borderopacity="1"
     objecttolerance="10"
     gridtolerance="10"
     guidetolerance="10"
     inkscape:pageopacity="0"
     inkscape:pageshadow="2"
     inkscape:window-width="1366"
     inkscape:window-height="705"
     id="namedview12"
     showgrid="false"
     inkscape:zoom="16"
     inkscape:cx="6.3176329"
     inkscape:cy="5.5705704"
     inkscape:window-x="-8"
     inkscape:window-y="-8"
     inkscape:window-maximized="1"
     inkscape:current-layer="g4836"
     units="px"
     inkscape:pagecheckerboard="true" />
  <metadata
     id="metadata2">
Created by potrace 1.15, written by Peter Selinger 2001-2017
<rdf:RDF>
  <cc:Work
     rdf:about="">
    <dc:format>image/svg+xml</dc:format>
    <dc:type
       rdf:resource="http://purl.org/dc/dcmitype/StillImage" />
    <dc:title></dc:title>
  </cc:Work>
</rdf:RDF>
</metadata>
  <ellipse
     style="opacity:1;fill:#ffffff;fill-opacity:1;stroke:#fcffff;stroke-width:0;stroke-linecap:butt;stroke-linejoin:round;stroke-miterlimit:4;stroke-dasharray:none;stroke-opacity:1;paint-order:stroke fill markers"
     id="path4764"
     cx="4.9882751"
     cy="2.0690029"
     rx="2.9002426"
     ry="2.0550289" />
  <ellipse
     style="opacity:1;fill:#ffffff;fill-opacity:1;stroke:#fcffff;stroke-width:0;stroke-linecap:butt;stroke-linejoin:round;stroke-miterlimit:4;stroke-dasharray:none;stroke-opacity:1;paint-order:stroke fill markers"
     id="path4764-6"
     cx="2.8503833"
     cy="3.0799448"
     rx="2.7013688"
     ry="2.137893" />
  <ellipse
     style="opacity:1;fill:#ffffff;fill-opacity:1;stroke:#fcffff;stroke-width:0;stroke-linecap:butt;stroke-linejoin:round;stroke-miterlimit:4;stroke-dasharray:none;stroke-opacity:1;paint-order:stroke fill markers"
     id="path4764-9"
     cx="7.1141047"
     cy="6.0630512"
     rx="2.6561594"
     ry="2.1047473" />
  <ellipse
     style="opacity:1;fill:#ffffff;fill-opacity:1;stroke:#fcffff;stroke-width:0;stroke-linecap:butt;stroke-linejoin:round;stroke-miterlimit:4;stroke-dasharray:none;stroke-opacity:1;paint-order:stroke fill markers"
     id="path4764-0"
     cx="7.1924586"
     cy="3.1628087"
     rx="2.7676599"
     ry="2.0881746" />
  <ellipse
     style="opacity:1;fill:#ffffff;fill-opacity:1;stroke:#fcffff;stroke-width:0;stroke-linecap:butt;stroke-linejoin:round;stroke-miterlimit:4;stroke-dasharray:none;stroke-opacity:1;paint-order:stroke fill markers"
     id="path4764-94"
     cx="3.1155467"
     cy="5.9349775"
     rx="2.6350775"
     ry="2.1424019" />
  <rect
     style="opacity:1;fill:#ffffff;fill-opacity:1;stroke:#fcffff;stroke-width:0;stroke-linecap:butt;stroke-linejoin:round;stroke-miterlimit:4;stroke-dasharray:none;stroke-opacity:1;paint-order:stroke fill markers"
     id="rect4801"
     width="6.5450845"
     height="2.8050292"
     x="5.833488"
     y="7.4054489" />
  <rect
     style="opacity:1;fill:#ffffff;fill-opacity:1;stroke:#fcffff;stroke-width:0;stroke-linecap:butt;stroke-linejoin:round;stroke-miterlimit:4;stroke-dasharray:none;stroke-opacity:1;paint-order:stroke fill markers"
     id="rect4803"
     width="6.9435215"
     height="1.325825"
     x="5.833488"
     y="9.4604778" />
  <rect
     style="opacity:1;fill:#ffffff;fill-opacity:1;stroke:#fcffff;stroke-width:0;stroke-linecap:butt;stroke-linejoin:round;stroke-miterlimit:4;stroke-dasharray:none;stroke-opacity:1;paint-order:stroke fill markers"
     id="rect4809"
     width="1.374557"
     height="2.7342479"
     x="9.0605459"
     y="9.5257635"
     transform="matrix(0.99902375,0.04417641,-0.24767893,0.96884217,0,0)"
     inkscape:transform-center-x="-0.71295063"
     inkscape:transform-center-y="-0.012829139" />
  <rect
     style="opacity:1;fill:#ffffff;fill-opacity:1;stroke:#fcffff;stroke-width:0;stroke-linecap:butt;stroke-linejoin:round;stroke-miterlimit:4;stroke-dasharray:none;stroke-opacity:1;paint-order:stroke fill markers"
     id="rect4809-0"
     width="1.2303666"
     height="2.6571479"
     x="8.0531731"
     y="11.159906"
     transform="matrix(0.99206074,-0.12575965,0.22665384,0.97397538,0,0)"
     inkscape:transform-center-x="1.2510948"
     inkscape:transform-center-y="-0.42896092" />
  <rect
     style="opacity:1;fill:#ffffff;fill-opacity:1;stroke:#fcffff;stroke-width:0;stroke-linecap:butt;stroke-linejoin:round;stroke-miterlimit:4;stroke-dasharray:none;stroke-opacity:1;paint-order:stroke fill markers"
     id="rect4828"
     width="1.4584072"
     height="1.3258249"
     x="10.407586"
     y="6.9849539" />
  <rect
     style="opacity:1;fill:#ffffff;fill-opacity:1;stroke:#fcffff;stroke-width:0;stroke-linecap:butt;stroke-linejoin:round;stroke-miterlimit:4;stroke-dasharray:none;stroke-opacity:1;paint-order:stroke fill markers"
     id="rect4830"
     width="2.2870483"
     height="6.8279996"
     x="3.8329673"
     y="5.6319685" />
  <g
     transform="matrix(0.00201601,0,0,-0.00219937,-10.289346,14.630795)"
     id="g4836"
     style="fill:#000000;stroke:none">
    <path
       style="stroke-width:1.02213168"
       d="m 7501.7728,6347.697 c -16,-2.0895 -75,-9.4027 -130,-15.6712 -161,-18.8056 -280,-74.1775 -432,-199.5479 -60,-49.1033 -147,-165.0709 -190,-251.7855 l -19,-40.7453 -190,-2.0896 c -183,-3.1342 -192,-4.179 -269,-34.4768 -117,-45.9691 -180,-81.4908 -275,-155.6683 -296,-231.9351 -393,-549.54 -265,-869.2344 52,-129.5495 104,-238.2038 129,-266.4122 12,-13.5817 35,-43.8796 53,-66.8641 l 32,-42.8349 -35,-60.5957 c -105,-182.8318 -131,-388.6481 -69,-548.4953 31,-80.4461 115,-180.7423 192,-231.9352 93,-60.5957 222,-122.2362 303,-144.176 105,-28.2084 336,-36.5663 450,-16.716 135,25.074 314,99.2515 470,195.3688 29,17.7608 54,30.2978 57,28.2084 2,-3.1344 -5,-532.8242 -17,-1178.4815 -11,-645.6575 -20,-1182.6606 -20,-1192.0634 0,-17.7608 21,-18.8056 301,-18.8056 h 301 l -6,107.6097 c -4,58.5061 -29,593.4197 -56,1187.8843 -27,594.4645 -51,1096.9907 -53,1115.7963 -2,18.8054 -1,32.3873 2,31.3426 4,-2.0896 62,-37.6112 131,-80.4461 132,-82.5355 236,-127.4598 397,-173.4289 88,-25.0742 115,-28.2084 263,-28.2084 194,0 285,15.6713 393,67.9089 100,49.1034 213,130.5942 264,192.2347 210,252.8301 232,393.8719 105,673.8657 l -50,111.7886 45,71.0431 c 265,418.9461 261,777.2964 -11,1051.0216 -101,101.3411 -215,170.2949 -366,222.5324 l -115,39.7007 h -180 c -100,0 -196,-5.2237 -215,-11.4923 l -36,-10.4475 -69,110.7439 c -38,60.5956 -95,136.8625 -126,169.25 -78,80.4459 -220,176.5632 -304,205.8163 -119,41.7901 -307,69.9985 -390,58.5061 z"
       id="path4832"
       inkscape:connector-curvature="0" />
    <path
       style="stroke-width:71.23538119;stroke:#000000;stroke-opacity:1;stroke-miterlimit:4;stroke-dasharray:none"
       d="M 8560.935,3102.9992 V 2903.718 h -179.7101 -179.7104 v -161.5794 -161.5793 h 179.7104 179.7101 v -231.5971 -231.5971 h -256.7289 -256.729 v -75.4037 -75.4037 h 258.0126 c 238.7579,0 256.729,-1.0772 250.3108,-18.3123 -3.8509,-10.7719 -41.0766,-159.4249 -84.7206,-331.7763 -43.6439,-171.2741 -82.1532,-323.1587 -86.0042,-336.085 -6.4182,-23.6983 -3.8508,-24.7755 83.437,-24.7755 82.1532,0 89.855,2.1544 96.2733,24.7755 3.851,12.9263 42.3603,164.8109 86.0043,336.085 43.644,172.3514 80.8696,321.0044 84.7206,331.7763 6.4182,17.2351 61.6148,18.3123 922.9407,18.3123 861.3264,0 916.5234,-1.0772 922.9414,-18.3123 3.851,-10.7719 41.077,-159.4249 84.72,-331.7763 43.645,-171.2741 82.154,-323.1587 86.005,-336.085 6.419,-22.6211 14.12,-24.7755 96.274,-24.7755 87.288,0 89.855,1.0772 83.436,23.6983 -3.851,14.0035 -42.36,165.8881 -86.003,337.1622 -43.644,172.3514 -80.871,321.0044 -84.722,331.7763 -6.418,17.2351 11.553,18.3123 250.312,18.3123 h 258.013 v 75.4037 75.4037 h -256.73 -256.729 v 231.5971 231.5971 h 179.711 179.709 v 161.5793 161.5794 h -179.709 -179.711 v 199.2812 199.2812 h -89.856 -89.855 V 3102.9992 2903.718 h -917.8064 -917.8062 v 199.2812 199.2812 h -89.8551 -89.8553 z m 2015.323,-754.037 v -231.5971 h -917.8064 -917.8062 v 231.5971 231.5971 h 917.8062 917.8064 z"
       id="path4834"
       inkscape:connector-curvature="0" />
  </g>
</svg>
