<?xml version="1.0" encoding="UTF-8" standalone="no"?>
<svg
   xmlns:dc="http://purl.org/dc/elements/1.1/"
   xmlns:cc="http://creativecommons.org/ns#"
   xmlns:rdf="http://www.w3.org/1999/02/22-rdf-syntax-ns#"
   xmlns:svg="http://www.w3.org/2000/svg"
   xmlns="http://www.w3.org/2000/svg"
   xmlns:sodipodi="http://sodipodi.sourceforge.net/DTD/sodipodi-0.dtd"
   xmlns:inkscape="http://www.inkscape.org/namespaces/inkscape"
   version="1.0"
   width="17"
   height="17"
   viewBox="0 0 12.749999 12.749999"
   preserveAspectRatio="xMidYMid meet"
   id="svg8"
   sodipodi:docname="MUB_Parada_Onibus_15px_branco.svg"
   inkscape:version="0.92.3 (2405546, 2018-03-11)">
  <defs
     id="defs12" />
  <sodipodi:namedview
     pagecolor="#ffffff"
     bordercolor="#666666"
     borderopacity="1"
     objecttolerance="10"
     gridtolerance="10"
     guidetolerance="10"
     inkscape:pageopacity="0"
     inkscape:pageshadow="2"
     inkscape:window-width="1366"
     inkscape:window-height="705"
     id="namedview10"
     showgrid="false"
     units="px"
     inkscape:zoom="24.896704"
     inkscape:cx="7.6712137"
     inkscape:cy="8.6358161"
     inkscape:window-x="-8"
     inkscape:window-y="-8"
     inkscape:window-maximized="1"
     inkscape:current-layer="svg8"
     inkscape:pagecheckerboard="true" />
  <metadata
     id="metadata2">
Created by potrace 1.15, written by Peter Selinger 2001-2017
<rdf:RDF>
  <cc:Work
     rdf:about="">
    <dc:format>image/svg+xml</dc:format>
    <dc:type
       rdf:resource="http://purl.org/dc/dcmitype/StillImage" />
    <dc:title></dc:title>
  </cc:Work>
</rdf:RDF>
</metadata>
  <ellipse
     style="opacity:1;fill:#ffffff;fill-opacity:1;stroke:#fcffff;stroke-width:0;stroke-linecap:butt;stroke-linejoin:round;stroke-miterlimit:4;stroke-dasharray:none;stroke-opacity:1;paint-order:stroke fill markers"
     id="path4763"
     cx="2.515393"
     cy="11.153402"
     rx="1.5212855"
     ry="1.6568456" />
  <ellipse
     style="opacity:1;fill:#ffffff;fill-opacity:1;stroke:#fcffff;stroke-width:0;stroke-linecap:butt;stroke-linejoin:round;stroke-miterlimit:4;stroke-dasharray:none;stroke-opacity:1;paint-order:stroke fill markers"
     id="path4765"
     cx="10.287503"
     cy="11.349211"
     rx="1.3649455"
     ry="1.4610367" />
  <ellipse
     style="opacity:1;fill:#ffffff;fill-opacity:1;stroke:#fcffff;stroke-width:0;stroke-linecap:butt;stroke-linejoin:round;stroke-miterlimit:4;stroke-dasharray:none;stroke-opacity:1;paint-order:stroke fill markers"
     id="path4767"
     ry="3.8709941"
     rx="6.3713245"
     cy="3.9988413"
     cx="6.4014492" />
  <rect
     style="opacity:1;fill:#ffffff;fill-opacity:1;stroke:#fcffff;stroke-width:0;stroke-linecap:butt;stroke-linejoin:round;stroke-miterlimit:4;stroke-dasharray:none;stroke-opacity:1;paint-order:stroke fill markers"
     id="rect4787"
     width="12.687883"
     height="7.9820967"
     x="0.06024899"
     y="3.4415386" />
  <g
     style="fill:#000000;stroke:none"
     id="g826-6-4"
     transform="matrix(0.00314614,0,0,-0.00259937,0.51004406,12.310593)">
    <path
       inkscape:connector-curvature="0"
       id="path824-9-0"
       d="M 1608,4359 C 1283,4337 845,4239 655,4145 493,4065 368,3942 291,3785 l -39,-80 -71,-670 -71,-670 V 1473 581 l 127,-3 128,-3 5,-170 c 5,-165 6,-172 34,-223 47,-84 119,-124 221,-124 102,0 182,50 226,140 20,42 23,66 27,215 l 4,167 987,-2 986,-3 5,-175 c 5,-169 6,-177 33,-222 49,-84 114,-120 217,-121 106,0 191,55 231,148 8,18 15,96 19,200 l 5,170 133,3 132,3 v 857 857 l -60,560 c -101,949 -96,911 -130,982 -93,200 -367,349 -820,447 -333,72 -680,98 -1012,75 z m 922,-344 c 59,-31 69,-107 21,-156 l -29,-29 h -665 -665 l -31,29 c -50,47 -41,124 17,155 41,23 1309,23 1352,1 z m 525,-418 c 33,-10 77,-29 97,-44 71,-48 74,-63 146,-640 l 66,-525 -24,-45 c -13,-25 -38,-54 -55,-64 -29,-18 -85,-19 -1417,-19 H 481 l -34,29 c -65,58 -65,47 3,631 60,518 69,573 98,618 19,30 83,62 141,72 25,4 555,7 1176,6 1050,-1 1134,-3 1190,-19 z M 871,1799 c 55,-19 97,-57 125,-111 22,-44 26,-61 22,-124 -3,-61 -8,-79 -33,-115 -97,-138 -321,-118 -394,34 -84,174 96,377 280,316 z m 2096,-4 c 61,-26 104,-65 129,-119 73,-156 -32,-319 -206,-319 -131,0 -231,94 -232,217 -2,161 166,281 309,221 z" />
  </g>
  <rect
     style="opacity:1;fill:#000000;fill-opacity:1;stroke:#fcffff;stroke-width:0;stroke-linecap:butt;stroke-linejoin:round;stroke-miterlimit:4;stroke-dasharray:none;stroke-opacity:1;paint-order:stroke fill markers"
     id="rect4807"
     width="5.0696888"
     height="0.80944616"
     x="3.8569124"
     y="1.6058087" />
</svg>
